<?xml version="1.0" encoding="utf-8"?>
<!-- Generator: Adobe Illustrator 20.1.0, SVG Export Plug-In . SVG Version: 6.00 Build 0)  -->
<svg version="1.1" id="Layer_1" xmlns="http://www.w3.org/2000/svg" xmlns:xlink="http://www.w3.org/1999/xlink" x="0px" y="0px"
	 viewBox="0 0 600 150" style="enable-background:new 0 0 600 150;" xml:space="preserve">
<style type="text/css">
	.st0{fill:#FFFFFF;}
	.st1{fill:#010201;}
	.st2{fill:#030302;}
	.st3{fill:none;}
</style>
<title>Asset 1</title>
<g id="Layer_2">
	<g id="Layer_1-2">
		<path class="st0" d="M42.1,39.5c-2.8,0.1-5.5,0.5-8.1,1.3c-5.5,1.6-10.4,4.5-14.4,8.5c-4,3.9-7,8.7-8.9,14c-2,5.6-3,11.5-2.9,17.5
			c0,3.9,0.3,7.9,0.9,11.8c0.7,4.1,1.6,8.1,2.9,12.1c3.8,12.1,10.1,23.3,18.6,32.8c2,2.3,4.3,4.3,7,5.8c1.8,1,3.9,1.7,6,1.8
			c2,0.1,4-0.1,5.9-0.6c2.1-0.6,4.2-1.4,6.2-2.3c3.4-1.6,7.1-2.5,10.8-2.7c2.8-0.1,5.6,0.2,8.3,0.9c2,0.6,3.9,1.4,5.8,2.2
			c2.7,1.3,5.6,2.1,8.6,2.4c2.6,0.2,5.3-0.3,7.7-1.3c2.8-1.3,5.4-3.2,7.5-5.5c2.3-2.5,4.4-5.2,6.3-8c3-4.1,5.6-8.5,7.7-13.1
			c1.4-2.9,2.5-5.8,3.4-8.8c0.1-0.2,0.1-0.3-0.2-0.4c-3.2-1.4-6.1-3.4-8.6-5.7c-2.9-2.6-5.2-5.7-6.9-9.2c-2.4-5.2-3.4-10.9-2.8-16.5
			c0.3-3.1,1.1-6.1,2.4-9c2.6-5.8,6.9-10.7,12.3-14.1c0.3-0.2,0.3-0.3,0.1-0.6c-2.4-3.4-5.4-6.3-8.9-8.5c-3.5-2.2-7.4-3.7-11.5-4.5
			c-1.6-0.3-3.3-0.5-5-0.6c-2.6-0.2-5.2,0-7.8,0.5c-2.7,0.6-5.3,1.4-7.9,2.4c-2.5,0.9-5,2-7.5,2.8C67,45.6,65,45.7,63,45.3
			c-2-0.5-4-1.2-5.9-2c-2.8-1.2-5.7-2.2-8.6-2.9C46.4,39.7,44.3,39.4,42.1,39.5z M92.6,8c0-0.7-0.1-1.5-0.2-2.4
			c0-0.3-0.1-0.3-0.3-0.3c-1.2,0.1-2.4,0.3-3.5,0.5c-2.5,0.6-5,1.5-7.3,2.7c-9.6,4.9-16,14.3-17,25c-0.1,1.3,0,2.5,0.1,3.8
			c0,0.2,0.1,0.2,0.3,0.2c1.9,0.1,3.8,0,5.6-0.5c3.9-1,7.6-2.8,10.7-5.4c3.4-2.8,6.1-6.2,8.1-10.1C91.3,17.4,92.6,12.8,92.6,8z"/>
		<path class="st1" d="M42.1,39.5c2.2,0,4.4,0.2,6.5,0.8c2.9,0.8,5.8,1.8,8.6,2.9c1.9,0.8,3.9,1.5,5.9,2c2,0.4,4,0.3,5.9-0.3
			c2.5-0.8,5-1.8,7.5-2.8c2.6-1,5.2-1.8,7.9-2.4c2.6-0.5,5.2-0.7,7.8-0.5c1.7,0.1,3.3,0.3,5,0.6c4.1,0.8,8,2.3,11.5,4.5
			c3.5,2.2,6.5,5.1,8.9,8.5c0.3,0.3,0.2,0.4-0.1,0.6c-5.4,3.4-9.7,8.3-12.3,14.1c-1.3,2.8-2.1,5.9-2.4,9c-0.6,5.7,0.4,11.4,2.8,16.5
			c1.7,3.5,4,6.6,6.9,9.2c2.6,2.3,5.5,4.3,8.6,5.7c0.2,0.1,0.3,0.2,0.2,0.4c-0.9,3-2.1,6-3.4,8.8c-2.2,4.6-4.8,9-7.7,13.1
			c-1.9,2.8-4,5.5-6.3,8c-2.1,2.3-4.6,4.2-7.5,5.5c-2.4,1-5.1,1.5-7.7,1.3c-3-0.3-5.9-1.1-8.6-2.4c-1.9-0.9-3.8-1.6-5.8-2.2
			c-2.7-0.7-5.5-1-8.3-0.9c-3.7,0.3-7.4,1.2-10.8,2.7c-2,1-4.1,1.7-6.2,2.3c-1.9,0.5-3.9,0.7-5.9,0.6c-2.1-0.2-4.1-0.8-6-1.8
			c-2.6-1.5-5-3.5-7-5.8c-8.5-9.5-14.8-20.7-18.6-32.8c-1.2-4-2.2-8-2.9-12.1c-0.7-3.9-1-7.8-0.9-11.8c-0.1-6,0.9-11.9,2.9-17.5
			c1.9-5.3,4.9-10.1,8.9-14C25.6,43.2,33.7,39.7,42.1,39.5z"/>
		<path class="st2" d="M92.6,8c-0.1,4.7-1.2,9.4-3.4,13.6c-2,3.9-4.7,7.3-8.1,10.1c-3.1,2.6-6.8,4.4-10.7,5.4
			c-1.8,0.4-3.7,0.6-5.6,0.5c-0.2,0-0.3,0-0.3-0.2c-0.2-1.3-0.2-2.5-0.1-3.8c0.4-6.3,2.9-11.8,6.7-16.6c2.8-3.5,6.3-6.4,10.3-8.4
			c2.3-1.2,4.8-2.1,7.3-2.7c1.2-0.3,2.3-0.4,3.5-0.5c0.3,0,0.3,0,0.3,0.3C92.6,6.4,92.6,7.2,92.6,8z"/>
		<path class="st3" d="M-9.4-4.7"/>
		<path d="M212.1,90v24h26.5V90h6.7v55.8h-6.7v-25.5h-26.5v25.5h-6.7V90H212.1z"/>
		<path d="M277.6,143.3c-2.9,2.3-6.5,3.6-10.2,3.4c-2.6,0.1-5.2-0.5-7.6-1.6c-2.1-1-3.9-2.5-5.4-4.4c-1.5-2-2.6-4.3-3.3-6.7
			c-0.8-2.8-1.2-5.6-1.3-8.5c0-2.9,0.4-5.7,1.3-8.5c0.8-2.4,2-4.7,3.5-6.6c1.5-1.8,3.3-3.3,5.5-4.4c2.1-1,4.5-1.6,6.9-1.6
			c2.9-0.1,5.7,0.7,8.1,2.3c2.1,1.5,3.9,3.4,5.1,5.6c1.3,2.3,2.2,4.9,2.7,7.5c0.5,2.5,0.7,5.1,0.6,7.7h-27.2c-0.1,1.7,0.1,3.4,0.6,5
			c0.4,1.5,1.1,3,2,4.2c0.9,1.3,2.2,2.3,3.6,2.9c1.6,0.8,3.4,1.1,5.1,1.1c4.8,0.4,9-3.1,9.4-7.9h5.9
			C282,137.6,280.3,141,277.6,143.3z M276.2,117.3c-1-2.7-2.9-4.8-5.5-6c-1.3-0.6-2.7-0.9-4.1-0.9c-1.5,0-2.9,0.3-4.2,0.9
			c-1.2,0.6-2.3,1.4-3.2,2.4c-0.9,1.1-1.6,2.3-2.1,3.6c-0.5,1.4-0.8,2.9-0.9,4.5h20.9C277,120.3,276.7,118.8,276.2,117.3
			L276.2,117.3z"/>
		<path d="M292.5,90v55.8h-6V90H292.5z"/>
		<path d="M308.5,145.9L295,105.5h6.7l10.2,33.7h0.2l9.9-33.7h6.3l-13.3,40.4H308.5z"/>
		<path d="M356,143.3c-2.9,2.3-6.5,3.6-10.2,3.4c-2.6,0.1-5.2-0.5-7.6-1.6c-2.1-1-3.9-2.5-5.4-4.4c-1.5-2-2.6-4.3-3.3-6.7
			c-0.8-2.8-1.2-5.6-1.3-8.5c0-2.9,0.4-5.7,1.3-8.5c0.8-2.4,2-4.7,3.5-6.6c1.5-1.8,3.3-3.3,5.5-4.4c2.1-1,4.5-1.6,6.9-1.6
			c2.9-0.1,5.7,0.7,8.1,2.3c2.1,1.5,3.9,3.4,5.1,5.6c1.3,2.3,2.2,4.9,2.7,7.5c0.5,2.5,0.7,5.1,0.6,7.7h-27.2c-0.1,1.7,0.1,3.4,0.6,5
			c0.4,1.5,1.1,3,2,4.2c0.9,1.3,2.2,2.3,3.6,2.9c1.6,0.8,3.4,1.1,5.1,1.1c4.8,0.4,9-3.1,9.4-7.9h5.9
			C360.5,137.6,358.7,141,356,143.3z M354.6,117.3c-1-2.7-2.9-4.8-5.5-6c-1.3-0.6-2.7-0.9-4.1-0.9c-1.5,0-2.9,0.3-4.2,0.9
			c-1.2,0.6-2.3,1.4-3.2,2.4c-0.9,1.1-1.6,2.3-2.1,3.6c-0.5,1.4-0.8,2.9-0.9,4.5h20.9C355.4,120.3,355.1,118.8,354.6,117.3z"/>
		<path d="M380.2,105.5v5.9H373v25c0,0.6,0.1,1.2,0.2,1.8c0.1,0.4,0.3,0.8,0.7,1.1c0.4,0.3,0.9,0.5,1.3,0.5c0.8,0.1,1.5,0.1,2.3,0.1
			h2.8v5.9h-4.5c-1.3,0-2.6-0.1-3.9-0.3c-1-0.2-1.9-0.6-2.7-1.3c-0.7-0.7-1.3-1.7-1.5-2.7c-0.4-1.5-0.5-3-0.5-4.5v-25.7h-6.2v-5.9
			h6.2V93.3h6v12.1L380.2,105.5z"/>
		<path d="M383.8,98.2V90h6v8.1H383.8z M389.8,105.5v40.4h-6v-40.4H389.8z"/>
		<path d="M417.4,112.5c-1.7-1.5-3.8-2.2-6-2.1c-1.9-0.1-3.8,0.4-5.5,1.3c-1.4,0.9-2.6,2.1-3.4,3.5c-0.9,1.6-1.5,3.3-1.8,5
			c-0.4,1.9-0.6,3.9-0.6,5.9c0,1.8,0.2,3.7,0.6,5.5c0.4,1.7,1,3.2,1.8,4.7c0.8,1.4,1.9,2.5,3.3,3.4c1.5,0.9,3.2,1.3,4.9,1.3
			c2.9,0,5.3-0.8,7-2.6c1.7-1.8,2.7-4.1,3-7.3h6.1c-0.7,5-2.4,8.9-5,11.6c-2.7,2.7-6.4,4-11,4c-2.5,0-5.1-0.5-7.4-1.5
			c-2.1-1-3.9-2.4-5.4-4.2c-1.5-2-2.6-4.2-3.3-6.5c-0.8-2.7-1.1-5.5-1.1-8.3c0-2.9,0.3-5.7,1.1-8.5c0.6-2.5,1.7-4.8,3.2-6.9
			c1.4-1.9,3.2-3.5,5.4-4.6c2.4-1.1,4.9-1.7,7.6-1.7c2,0,3.9,0.2,5.8,0.8c1.7,0.6,3.3,1.4,4.8,2.5c1.4,1.2,2.6,2.7,3.4,4.4
			c1,1.9,1.5,4.1,1.7,6.2h-6.2C420,116.1,419,114,417.4,112.5z"/>
		<path d="M462.3,145.7c-1.3,0.7-2.8,1.1-4.3,1c-1.4,0-2.7-0.5-3.7-1.4c-0.9-0.9-1.3-2.5-1.3-4.7c-1.5,2-3.4,3.7-5.7,4.7
			c-2.2,0.9-4.6,1.4-7.1,1.4c-1.6,0-3.2-0.2-4.7-0.6c-1.4-0.4-2.7-1-3.9-1.9c-1.1-0.9-2-2.1-2.6-3.4c-1.3-3.5-1.2-7.4,0.2-10.8
			c0.6-1.4,1.6-2.6,2.8-3.5c1.2-0.9,2.5-1.6,3.9-2.1c1.5-0.5,3-0.9,4.5-1.2c1.7-0.3,3.2-0.7,4.7-0.8c1.3-0.1,2.6-0.4,3.9-0.8
			c1-0.3,1.9-0.8,2.7-1.5c0.7-0.8,1.1-1.8,1-2.9c0-1.2-0.2-2.4-0.8-3.5c-0.4-0.9-1.1-1.6-1.9-2c-0.8-0.5-1.7-0.8-2.6-0.9
			c-0.9-0.2-1.9-0.3-2.9-0.3c-2.2-0.1-4.4,0.5-6.3,1.6c-1.7,1.1-2.6,3.1-2.8,6h-6c0-2.2,0.5-4.3,1.4-6.3c0.8-1.6,1.9-3.1,3.4-4.2
			c1.4-1.1,3-1.9,4.8-2.3c1.9-0.5,3.8-0.7,5.8-0.7c1.6,0,3.3,0.2,4.9,0.4c1.6,0.2,3,0.8,4.4,1.6c1.3,0.8,2.4,2,3.2,3.4
			c0.8,1.8,1.2,3.7,1.2,5.7v20.7c0,1.2,0.1,2.3,0.3,3.4c0.2,0.8,0.8,1.1,1.7,1.1c0.6,0,1.3-0.1,1.8-0.3L462.3,145.7L462.3,145.7z
			 M452.6,125c-0.9,0.7-1.9,1.1-2.9,1.3c-1.3,0.3-2.5,0.5-3.9,0.7c-1.3,0.2-2.7,0.4-4,0.6c-1.3,0.2-2.5,0.6-3.7,1.1
			c-1,0.5-1.9,1.2-2.6,2.2c-0.7,1.2-1.1,2.6-1,3.9c0,1,0.2,1.9,0.6,2.8c0.4,0.7,0.9,1.3,1.5,1.8c0.6,0.5,1.4,0.8,2.2,1
			c0.9,0.2,1.8,0.3,2.7,0.3c1.7,0,3.4-0.3,5-0.9c1.3-0.5,2.5-1.3,3.4-2.3c0.8-0.8,1.5-1.8,1.9-2.9c0.4-1,0.6-2,0.7-3L452.6,125
			L452.6,125z"/>
	</g>
</g>
</svg>
