<?xml version="1.0" encoding="utf-8"?>
<!-- Generator: Adobe Illustrator 20.1.0, SVG Export Plug-In . SVG Version: 6.00 Build 0)  -->
<svg version="1.1" id="Layer_1" xmlns="http://www.w3.org/2000/svg" xmlns:xlink="http://www.w3.org/1999/xlink" x="0px" y="0px"
	 viewBox="0 0 600 150" style="enable-background:new 0 0 600 150;" xml:space="preserve">
<style type="text/css">
	.st0{fill:none;enable-background:new    ;}
	.st1{fill:#FCFCFD;}
	.st2{fill:#416096;}
	.st3{fill:#4869A3;}
	.st4{fill:#4E6FA7;}
	.st5{fill:#8094B6;}
	.st6{fill:#597BAF;}
	.st7{fill:#9CB7D9;}
	.st8{fill:#D6DEE9;}
	.st9{fill:#BBCBE0;}
	.st10{fill:#ACC0DB;}
	.st11{fill:#8AA2C9;}
	.st12{fill:#8EADD3;}
	.st13{fill:#7999C5;}
	.st14{fill:#6589BB;}
	.st15{fill:#7FA5D4;}
	.st16{fill:#93B4DE;}
</style>
<path class="st0" d="M0.1-156.2"/>
<g>
	<path d="M181.4,147.6V94.2h6.8V142h21.7v5.6H181.4z"/>
	<path d="M236,147.6v-7.4c-3.4,5.5-7.6,8.3-12.4,8.3c-3.1,0-5.5-1.1-7.3-3.2c-1.8-2.1-2.8-5.1-2.8-8.7v-28.1h6.5v25.8
		c0,3,0.4,5,1.1,6.3c0.7,1.3,2,1.8,3.9,1.8c4,0,7.6-2.9,11.1-8.6v-25.4h6.5v39.2L236,147.6L236,147.6z"/>
	<path d="M265.9,148.5c-4.8,0-8.7-1.9-11.8-5.9c-3.1-4-4.7-8.9-4.7-14.9c0-6.4,1.6-11.3,4.6-14.9c3.1-3.6,7.5-5.4,13-5.4
		c2.8,0,5.8,0.5,9.2,1.3v6c-3.6-1.2-6.6-1.8-8.8-1.8c-3.2,0-5.9,1.4-7.8,4.2c-1.9,2.8-3,6.4-3,10.9c0,4.4,1,7.9,3,10.7
		c2,2.8,4.7,4.2,7.9,4.2c3,0,6-0.8,9-2.5v6.1C272.4,147.9,268.8,148.5,265.9,148.5z"/>
	<path d="M282.9,101.3v-7.1h6.5v7.1H282.9z M282.9,147.6v-39.2h6.5v39.2H282.9z"/>
	<path d="M321.6,147.6v-7.4c-2.6,5.5-6.6,8.3-11.8,8.3c-4.2,0-7.6-1.8-10-5.2c-2.4-3.4-3.6-8.1-3.6-14.1c0-6.6,1.4-11.8,4.2-15.7
		c2.8-4,6.4-6,10.9-6c4.2,0,7.7,1.8,10.4,5.4V90.7h6.5v57L321.6,147.6L321.6,147.6z M321.6,117.8c-3.3-3.2-6.5-4.9-9.4-4.9
		c-6.1,0-9.1,5.3-9.1,15.7c0,9.1,2.8,13.7,8.2,13.7c3.6,0,7-2.1,10.4-6.5L321.6,117.8L321.6,117.8z"/>
	<path d="M355.8,142.7c-3.8,4-7.5,5.9-11.1,5.9c-3,0-5.4-1-7.3-3c-1.9-2-3-4.6-3-7.7c0-4.2,1.6-7.6,4.9-9.9
		c3.2-2.3,7.8-3.4,13.9-3.4h1.6v-4.7c0-4.5-2.1-6.8-6.3-6.8c-3.4,0-7,1.1-11,3.4v-5.9c4.2-1.9,8.3-3,12.2-3c4,0,6.8,1,8.8,3
		c1.8,1.9,2.8,5.1,2.8,9.2v17.7c0,4.1,1.1,6.1,3.4,6.1c0.3,0,0.7-0.1,1.3-0.1l0.5,4c-1.4,0.7-3,1.1-4.8,1.1
		C358.6,148.5,356.7,146.6,355.8,142.7z M354.9,138.8v-10.1l-2.1-0.1c-3.5,0-6.4,0.7-8.5,2.2c-2.1,1.5-3.2,3.4-3.2,5.8
		c0,1.8,0.6,3.1,1.6,4.3c1.1,1.2,2.4,1.8,4,1.8C349.3,142.7,352,141.4,354.9,138.8z"/>
	<path d="M425,146.2c-5.8,1.8-10.9,2.8-15.2,2.8c-7.7,0-13.5-2.4-17.6-7.3c-4.2-4.8-6.1-11.8-6.1-20.8c0-8.9,2.1-15.8,6.2-20.7
		c4.2-5,10-7.4,17.4-7.4c4.9,0,10,0.8,15.3,2.4v7c-6.6-2.5-11.7-3.8-15.2-3.8c-5.2,0-9.2,1.9-12.1,5.9s-4.2,9.5-4.2,16.5
		s1.6,12.5,4.6,16.4c3.1,4,7.4,5.9,12.9,5.9c2.3,0,4.8-0.5,7.4-1.3v-17.3h6.8L425,146.2L425,146.2z"/>
	<path d="M434,147.6v-39.2h6.4v7.4c2.6-5.4,6.2-8.2,11.1-8.2c0.6,0,1.3,0.1,2,0.2v6.6c-1.1-0.5-2.1-0.6-3-0.6c-4.1,0-7.5,2.7-10.1,8
		v25.8L434,147.6L434,147.6z"/>
	<path d="M476.1,142.7c-3.8,4-7.5,5.9-11.1,5.9c-3,0-5.4-1-7.3-3c-1.9-2-3-4.6-3-7.7c0-4.2,1.6-7.6,4.9-9.9
		c3.2-2.3,7.8-3.4,13.9-3.4h1.6v-4.7c0-4.5-2.1-6.8-6.3-6.8c-3.4,0-7,1.1-11,3.4v-5.9c4.2-1.9,8.3-3,12.2-3c4,0,6.8,1,8.8,3
		c1.8,1.9,2.8,5.1,2.8,9.2v17.7c0,4.1,1.1,6.1,3.4,6.1c0.3,0,0.7-0.1,1.3-0.1l0.5,4c-1.4,0.7-3,1.1-4.8,1.1
		C478.9,148.5,477,146.6,476.1,142.7z M475.2,138.8v-10.1l-2.1-0.1c-3.5,0-6.4,0.7-8.5,2.2c-2.1,1.5-3.2,3.4-3.2,5.8
		c0,1.8,0.6,3.1,1.6,4.3c1.1,1.2,2.4,1.8,4,1.8C469.6,142.7,472.4,141.4,475.2,138.8z"/>
	<path d="M491.5,147.6v-39.2h6.5v7.4c3.4-5.4,7.5-8.2,12.5-8.2c3,0,5.4,1.1,7.3,3.2s2.8,5.1,2.8,8.7v28.1h-6.5v-25.8
		c0-3-0.4-5-1.1-6.3s-2-1.8-3.8-1.8c-4,0-7.7,2.9-11.1,8.6v25.4H491.5z"/>
	<path d="M552.3,147.6v-7.4c-2.6,5.5-6.6,8.3-11.8,8.3c-4.2,0-7.6-1.8-10-5.2c-2.4-3.4-3.6-8.1-3.6-14.1c0-6.6,1.4-11.8,4.2-15.7
		c2.8-4,6.4-6,10.9-6c4.2,0,7.7,1.8,10.4,5.4V90.7h6.5v57L552.3,147.6L552.3,147.6z M552.3,117.8c-3.3-3.2-6.5-4.9-9.4-4.9
		c-6.1,0-9.1,5.3-9.1,15.7c0,9.1,2.8,13.7,8.2,13.7c3.6,0,7-2.1,10.4-6.5L552.3,117.8L552.3,117.8z"/>
	<path d="M594.2,146.4c-4.2,1.4-7.9,2.1-11,2.1c-5.2,0-9.5-1.9-12.7-5.8c-3.2-3.8-5-8.8-5-14.9c0-6,1.4-10.8,4.3-14.7
		c3-3.8,6.6-5.7,11.1-5.7c4.2,0,7.6,1.7,9.9,5.1c2.3,3.4,3.5,8.1,3.5,14.3l-0.1,2.2H572c0.9,9.3,5.1,14,12.4,14c2.7,0,6-0.7,9.8-2.4
		L594.2,146.4L594.2,146.4z M572.4,123.8h15.5c0-7.3-2.4-11-7.3-11C575.6,112.8,572.9,116.5,572.4,123.8z"/>
</g>
<g>
	<path class="st1" d="M117.9,121.8L117.9,121.8v-0.2c0.3-0.6,0.6-1.1,0.7-1.7c0.4-0.3,0.5-0.6,0.5-0.9c0.8-2,1.6-4.1,2.4-6.1
		c0.6-1.5,0.3-2.4-1.2-3.1c-1.8-0.8-3.6-2-5.2-3.2c-3.4-2.6-6.1-6-8.3-9.7c-0.3-0.5-0.5-0.9-0.6-1.4c-0.9-2.6-2.3-5-2.6-7.8
		c-0.1-3-0.3-5.8-0.2-8.8c0.1-2.8,0.9-5.4,1.7-8c0.7-2.2,2.1-4.2,3.2-6.2c2.6-3.3,5.4-6.4,8.8-8.8c1-0.7,1.1-1.4,0.3-2.3
		c-3.4-4.1-7.3-7.5-12.4-9.6c-4.5-1.8-9.1-3-14-2.8c-3.5,0.1-6.9,0.3-10.1,1.6c-3.6,0.9-6.9,2.5-10.3,3.9c-2.1,0.3-4.2,1.3-6.4,0.9
		c-0.4-0.1-0.7-0.3-1.2-0.4c-3-0.5-5.7-1.6-8.4-2.9c-2.4-0.7-4.7-1.9-7.2-2.4c-8.6-1.7-16.3,0.6-23.5,5.3
		c-7.5,5-12.1,12.1-14.7,20.5c-1.5,5-2.4,10.1-1.9,15.3c-0.5,4.6,0.1,9.1,0.9,13.7c1.8,10,5.3,19.4,10.1,28.1c0,0.1,0.1,0.2,0.2,0.2
		c0.3,0.5,0.6,0.7,0.7,1.2c0.1,0.5,0.2,0.7,0.6,0.9c0.7,1.5,1.6,2.8,2.6,4c0.2,0.7,0.7,1.3,1.4,1.8c0.9,1.6,1.8,3,3.2,4.2
		c0.1,0.5,0.3,0.7,0.6,0.9c0,0.3,0.1,0.5,0.5,0.6c1.7,2.1,3.5,4.2,5.7,5.6c0.2,0.1,0.4,0.3,0.6,0.5c0.2,0.4,0.5,0.6,0.9,0.6
		c3.7,3,7.9,3.2,12.4,2.4c2.4-0.5,4.9-1.1,6.9-2.7c1.4-0.4,2.8-0.7,4.2-1.1c5.6,0,11.3,0,17.1,0c1.3,0.5,2.6,0.8,3.8,1.3
		c8.4,4.4,16.7,4,23.4-3c3.1-3.1,5.8-6.6,8.1-10.5c0.6-0.1,0.7-0.5,0.6-1c0.3-0.4,0.6-0.7,0.7-1.1c0.5-0.1,0.6-0.4,0.6-0.7
		c0.5-0.5,0.7-0.9,0.9-1.6c0.4-0.2,0.6-0.5,0.6-0.9c0.1-0.1,0.1-0.1,0.1-0.3c0.5-0.3,0.6-0.6,0.6-1.2c0.4-0.7,0.7-1.4,1.1-2.1
		c0.6-0.4,0.9-0.8,0.9-1.5h0.6V121.8z M92.4,13.3c0.5-0.5,0.6-0.9,0.2-1.4c0.8-1.3,0.6-2.6,0.4-4c-0.1-0.6-0.4-0.9-0.9-0.9
		c-0.8-0.2-1.4,0.5-2.1,0.6c-6.8,1.1-12.5,4.5-17.1,9.6c-5.2,5.6-8.3,12.3-8.1,20.1c0.1,1.3,0.3,2,1.8,2c5.1,0.1,9.6-1.7,13.5-4.8
		c0.5,0,0.6-0.2,0.7-0.6c0.5-0.2,0.7-0.5,1-0.8c1.7-1.1,3-2.5,4.2-4.2c0.1-0.1,0.2-0.1,0.2-0.3c1.2-1.1,2.1-2.4,2.7-4
		c0.1-0.4,0.3-0.7,0.5-1.1c0.5-0.2,0.6-0.5,0.6-0.9c0.3-0.6,0.6-1.1,0.7-1.8C91.6,18.4,92.2,15.9,92.4,13.3z"/>
	<path class="st2" d="M93,8c0.3,1.3,0.5,2.7-0.4,4c-0.5,0.5-0.3,0.9-0.2,1.4c-0.2,2.6-0.9,5.1-1.8,7.5c-0.3,0.6-0.5,1.2-0.7,1.8
		c-0.5,0.2-0.6,0.5-0.6,0.9c-0.1,0.4-0.3,0.7-0.5,1.1c-1.1,1.2-2.5,2.2-2.7,4c0,0.1-0.1,0.3-0.2,0.3c-1.7,1.1-3.1,2.4-4.2,4.2
		c-0.3,0.4-0.6,0.6-1,0.8c-0.5-0.1-0.7,0.1-0.7,0.6c-4,3.1-8.4,4.9-13.5,4.8c-1.5,0-1.8-0.7-1.8-2c-0.2-7.9,3-14.5,8.1-20.1
		c4.6-5,10.1-8.5,17.1-9.6c0.7-0.1,1.4-0.7,2.1-0.6C92.1,7.6,92.4,7.9,93,8z M81.1,12c-0.7,0.5-1.5,1-2.3,1.5
		c-1.4,0.3-1.9,1.5-2.9,2.3c-4.6,3.8-7.7,8.5-9.1,14.3c-0.3,0.8-0.6,1.6-0.6,2.5c-0.4,0.6-0.3,1.4-0.3,2.1c0,0.8,0,1.7-0.1,2.5
		c0.9,1,1.5,0.1,2-0.5c4-3.2,7.3-6.9,10.6-10.8c1.6-1.8,3.2-3.4,4.3-5.4c3.2-3,5.5-6.6,7.1-10.6c0.5-0.5,1-1-0.3-1
		c-1.5,0.1-3,0.3-4.2,1.3c-1.1,0.3-2.3,0.3-3.1,1.1C82.3,11.8,81.5,11.4,81.1,12z"/>
	<path class="st3" d="M18.8,125.1c-5-8.8-8.3-18.2-10.1-28.1c-0.8-4.5-1.4-9.1-0.9-13.7c0.6,0,0.8-0.6,1.2-1c0.6-0.7,0.4-2,1.7-2.2
		c0.1,0.9,0.1,1.9,0.1,2.9c-0.2,3,0.3,6,0.9,8.9c-0.1,1.9,1,3.7,0.7,5.6c0.7,6.7,2.5,13.3,5.3,19.4c0.7,1.8,1.3,3.6,2.3,5.3
		c0.5,0.9,0.2,2.2,0.9,3.3c2.4,3.9,5.1,7.6,7.9,11.2c1.9,2.3,4.2,4.4,7.3,5.2c4.2,3.4,8.9,4.9,14.2,3.2c1.6,0.7,3.1,0.1,4.7,0.4
		c-2.1,1.6-4.4,2.3-6.9,2.7c-4.4,0.7-8.7,0.6-12.4-2.4c-0.1-0.6-0.5-0.6-0.9-0.6c-0.2-0.1-0.4-0.3-0.6-0.5c-1.5-2.3-3.3-4.2-5.7-5.6
		c-0.3-0.1-0.4-0.3-0.5-0.6c0.1-0.5-0.1-0.8-0.6-0.9c-1.4-1.2-2.3-2.7-3.2-4.2c0.1-1-0.4-1.6-1.4-1.8c-1-1.3-1.9-2.6-2.6-4
		c0.1-0.5,0-0.9-0.6-0.9c-0.3-0.5-0.6-0.7-0.7-1.2C19,125.2,18.8,125.1,18.8,125.1z"/>
	<path class="st3" d="M116.9,123.3c-0.4,0.7-0.7,1.4-1.1,2.1c-0.5,0.3-0.7,0.6-0.6,1.2c0,0.1,0,0.2-0.1,0.3
		c-0.6,0.1-0.7,0.5-0.6,0.9c-0.1,0.6-0.5,1.1-0.9,1.6c-0.5,0.1-0.6,0.4-0.6,0.7c-0.3,0.4-0.6,0.7-0.7,1.1c-0.5,0.2-0.7,0.6-0.6,1
		c-2.3,3.8-5,7.3-8.1,10.5c-6.8,6.8-15.1,7.3-23.4,2.9c0.2-1,0.7-0.9,1.6-0.7c0.7,0.2,1.6,0.6,2-0.6c2.2,0.7,4.6,1.5,6.9,1.3
		c6.3-0.5,10.8-4.2,14.5-9.1c2.8-3.2,5.2-6.6,7.1-10.3c1.8-2.4,3-5.1,4.2-7.8c0.4-0.6,0.7-1.3,0.7-2.1c0.7-0.3,0.7-1.1,1-1.8
		c0.6-1.4,0.6-2.3-1-3.1c-1.7-0.8-3.1-2.1-4.6-3.2c0-0.1,0-0.3,0-0.4c-0.1-0.3-0.1-0.6-0.3-0.8c-1.5-3-3.5-5.6-5.3-8.5
		c-0.5-0.6-0.8-1.1,0.3-1.4c2.2,3.7,4.9,7,8.3,9.7c1.6,1.3,3.3,2.4,5.2,3.2c1.5,0.7,1.8,1.6,1.2,3.1c-0.9,1.9-1.6,4.1-2.4,6.1
		c-0.5,0.1-0.6,0.5-0.5,0.9c-0.3,0.6-0.6,1.1-0.7,1.7l-0.1,0.1l-0.1,0.1C117,122,116.9,122.7,116.9,123.3z"/>
	<path class="st2" d="M10.4,80.1c-1.3,0.1-1.1,1.5-1.7,2.2c-0.4,0.5-0.6,1-1.2,1C7.1,78,8,73,9.5,68c2.6-8.5,7.2-15.5,14.7-20.5
		c7.1-4.8,14.9-6.9,23.5-5.3c2.4,0.5,4.8,1.6,7.2,2.4c0.1,0.6-0.5,0.7-0.7,1c-2.7-0.7-5.3-1.7-8-2.1c-0.2-0.1-0.3-0.1-0.5-0.1
		c-7.5-0.6-14.2,1.6-20.4,5.7c-4.6,3-7.9,7.1-10.3,12.1c-1.6,2.6-2.4,5.4-3.1,8.3c-0.7,2.1-0.9,4.2-1.1,6.4
		c-0.1,0.3-0.2,0.5-0.3,0.7c-0.4,0.1-0.7,0.1-0.6,0.6c0.1,0.4,0.4,0.5,0.6,0.5c0.1,0.7,0.1,1.4,0.1,2.1C10.5,79.8,10.5,80,10.4,80.1
		z"/>
	<path class="st2" d="M81.1,42.9c3.2-1.3,6.6-1.5,10.1-1.6c5-0.1,9.6,0.9,14,2.8c5,2.1,8.9,5.5,12.4,9.6c0.7,0.9,0.7,1.6-0.3,2.3
		c-3.4,2.4-6.2,5.5-8.8,8.8c-0.7-0.6-0.5-1.3-0.3-1.9c0.3-1.1,0.6-2.3,0.6-3.4c1.6-1.9,3.1-3.8,4.7-5.6c0.6-0.6,1.1-1.4-0.3-1.9
		c-1.6-2.1-3.6-3.4-5.9-4.5c-0.3-0.1-0.5-0.3-0.7-0.4c-1.1-0.5-1.8-1.5-3-1.6c-0.6-0.6-1.4-0.6-2-0.8c-1.9-0.8-4.1-1.6-6.3-1.2
		c-0.7-0.6-1.8-0.6-2.7-0.7c-3.5-0.3-7,0.3-10.4,1.1C81.5,43.9,81,43.7,81.1,42.9z"/>
	<path class="st4" d="M107,97c-1.1,0.3-0.6,0.7-0.3,1.4c1.8,2.9,3.8,5.4,5.3,8.5c0.1,0.3,0.2,0.6,0.3,0.8c-2.4-1.1-4-3.2-5.6-5.3
		c-2.4-2.8-3.5-6.3-5-9.7c-2.3-5.4-2.7-11.2-1.9-17c0.5-3.2,1.4-6.5,1.8-9.7c0.6-0.8,1.3-1.4,2.1-1.8c0,0.6,0.1,1.3-0.1,1.8
		c-1.1,3.1-1.6,6.5-2.2,9.7c-0.7,4.2,0.7,7.9,1.8,11.8c0,0.1,0.3,0.1,0.5,0.2c0.3,2.8,1.7,5.2,2.6,7.8C106.5,96,106.8,96.6,107,97z"
		/>
	<path class="st3" d="M103.8,87.8c-0.2-0.1-0.5-0.1-0.5-0.2c-1-3.9-2.6-7.6-1.8-11.8c0.6-3.2,1.2-6.6,2.2-9.7
		c0.2-0.6,0.1-1.2,0.1-1.8c1.6-1.8,3.1-3.4,5-5c0.1,1.2-0.3,2.3-0.6,3.4c-0.2,0.7-0.5,1.4,0.3,1.9c-1.1,2-2.6,4-3.2,6.2
		c-0.8,2.6-1.6,5.3-1.7,8C103.5,82,103.7,84.9,103.8,87.8z"/>
	<path class="st4" d="M83.5,144.3c-0.5,1.2-1.3,0.7-2,0.6c-0.7-0.2-1.4-0.3-1.6,0.7c-1.3-0.5-2.6-0.8-3.8-1.3
		c-4-1.6-8.1-1.7-12.2-1.3c-1.6,0.2-3.4,0.3-4.8,1.3c-1.4,0.4-2.8,0.7-4.2,1.1c-1.6-0.3-3.2,0.4-4.7-0.4c0.5-0.5,1.2-0.5,1.8-0.7
		c1.8-0.9,4-1.2,5.7-2.4c1.2-0.1,2.3-0.8,3.5-0.7c0.1,0.4,0.2,0.6,0.6,0.6c4-0.3,7.9-0.5,12,0.1c0.6,0.1,1.4,0.3,1.9-0.5
		c0.8,0.2,1.6,0.4,2.4,0.5C80,142.6,81.7,143.4,83.5,144.3z"/>
	<path class="st5" d="M76.1,144.3c-5.6,0-11.3,0-17.1,0c1.4-1,3.2-1.1,4.8-1.3"/>
	<path class="st4" d="M81.1,42.9c-0.1,0.8,0.5,1,1.1,1c-3.8,1.3-7.6,2.7-11.3,4c0-0.5,0-0.7,0-1.2C74.1,45.4,77.5,43.7,81.1,42.9z"
		/>
	<path class="st3" d="M54.1,45.5c0.4-0.3,0.7-0.5,0.7-1c2.7,1.3,5.4,2.4,8.4,2.9c0.5,0.1,0.7,0.3,1.2,0.4c0,0.4,0,0.7-0.1,1.1
		c-0.4-0.1-0.7-0.1-1.1-0.1c-0.1,0.1-0.3,0.1-0.4,0.1c-0.1,0.1-0.3,0.1-0.4,0.2c-0.4-0.2-0.6-0.6-1-0.5C61.4,48,61,47.9,60.6,48
		C58.4,47.2,56.1,46.7,54.1,45.5z"/>
	<path class="st6" d="M64.4,48.8c0-0.4,0-0.7,0.1-1.1c2.2,0.3,4.2-0.7,6.4-0.9c0,0.5,0,0.7,0,1.2C68.8,49,66.6,49,64.4,48.8z"/>
	<path class="st4" d="M28.6,138.9c2.3,1.4,4.2,3.3,5.7,5.6C32.1,143,30.2,141,28.6,138.9z"/>
	<path class="st4" d="M81.8,33.2c1-1.8,2.4-3.1,4.2-4.2C84.8,30.6,83.4,32,81.8,33.2z"/>
	<path class="st4" d="M86,28.7c0.3-1.8,1.6-2.8,2.7-4C88.3,26.3,87.2,27.5,86,28.7z"/>
	<path class="st4" d="M22.9,131.4c1,0.2,1.4,0.8,1.4,1.8C23.7,132.8,23.1,132.3,22.9,131.4z"/>
	<path class="st6" d="M116.9,123.3c0.1-0.6,0.2-1.3,0.9-1.5C117.8,122.5,117.4,123.1,116.9,123.3z"/>
	<path class="st4" d="M92.4,13.3c0-0.5-0.3-1,0.2-1.4C93,12.4,92.9,12.9,92.4,13.3z"/>
	<path class="st4" d="M93,8c-0.6-0.1-0.8-0.5-0.9-0.9C92.6,7.1,93,7.4,93,8z"/>
	<path class="st6" d="M111.5,132.1c0-0.5,0.3-0.8,0.6-1C112.2,131.6,112.1,132,111.5,132.1z"/>
	<path class="st6" d="M115.2,126.6c-0.1-0.6,0.1-0.9,0.6-1.2C115.7,125.9,115.6,126.4,115.2,126.6z"/>
	<path class="st4" d="M89.3,23.6c0-0.5,0.3-0.7,0.6-0.9C89.9,23.1,89.6,23.4,89.3,23.6z"/>
	<path class="st4" d="M19.7,126.5c0.6,0.1,0.6,0.5,0.6,0.9C20,127.3,19.8,126.9,19.7,126.5z"/>
	<path class="st6" d="M114.5,127.8c-0.1-0.5,0-0.8,0.6-0.9C115.1,127.3,114.8,127.6,114.5,127.8z"/>
	<path class="st6" d="M113,130.1c0-0.4,0.2-0.6,0.6-0.7C113.5,129.7,113.4,130,113,130.1z"/>
	<path class="st6" d="M118.8,119.9c-0.1-0.5-0.1-0.7,0.5-0.9C119.3,119.4,119.1,119.7,118.8,119.9z"/>
	<path class="st4" d="M27.5,137.4c0.6,0.1,0.7,0.4,0.6,0.9C27.7,138.2,27.5,137.9,27.5,137.4z"/>
	<path class="st4" d="M80,34.5c0.1-0.5,0.4-0.6,0.7-0.6C80.6,34.3,80.3,34.5,80,34.5z"/>
	<path class="st4" d="M34.7,145c0.5-0.1,0.8,0.1,0.9,0.6C35.2,145.6,34.9,145.4,34.7,145z"/>
	<path class="st4" d="M18.8,125.1c0.1,0.1,0.2,0.1,0.2,0.2C18.8,125.3,18.8,125.3,18.8,125.1z"/>
	<polygon class="st6" points="117.9,121.8 118,121.6 118.1,121.8 	"/>
	<path class="st5" d="M83.2,20.5c-1.1,2.1-2.9,3.8-4.3,5.4c-3.3,3.8-6.7,7.6-10.6,10.8c-0.6,0.5-1.1,1.4-2,0.5
		c0.7-0.4,1.2-0.9,1.7-1.6c3-4.3,6.6-8.3,9.7-12.7c3-4.2,5.6-8.5,8.3-12.8c1.3-1.1,2.8-1.3,4.2-1.3c1.3,0,0.6,0.6,0.3,1
		c-0.3,0.1-0.6,0.1-0.6,0.3C87.2,13.3,84.7,16.6,83.2,20.5z"/>
	<path class="st7" d="M85.8,10c-2.7,4.2-5.4,8.7-8.3,12.8c-3.1,4.3-6.6,8.3-9.7,12.7c-0.5,0.6-0.9,1.2-1.7,1.6c0-0.8,0-1.7,0.1-2.5
		c0.7-0.1,0.9-0.7,1.3-1.1c1.2-1.5,2.3-3,3.4-4.4c4.2-5.3,8.1-10.9,11.8-16.6c0.3-0.4,0.9-0.9-0.1-1.2C83.5,10.4,84.7,10.3,85.8,10z
		"/>
	<path class="st8" d="M66.9,30c1.5-5.8,4.4-10.6,9.1-14.3c0.9-0.7,1.5-2,2.9-2.3c-0.5,0.9-0.8,1.9-1.4,2.8c-3,4.5-6.4,8.7-9.6,13
		C67.8,29.6,67.5,30,66.9,30z"/>
	<path class="st9" d="M66.9,30c0.6,0,0.7-0.5,1.1-0.8c3.2-4.3,6.6-8.5,9.6-13c0.6-0.9,0.9-1.8,1.4-2.8c0.7-0.5,1.5-1,2.3-1.5
		c1.1,0.6,0.1,0.9-0.1,1.3c-4.1,6.5-8.9,12.4-13.4,18.5c-0.3,0.5-0.7,0.7-1.3,0.7C66.4,31.6,66.7,30.8,66.9,30z"/>
	<path class="st10" d="M66.4,32.5c0.6,0,1-0.3,1.3-0.7c4.4-6.1,9.3-12,13.4-18.5c0.3-0.4,1.2-0.7,0.1-1.3c0.4-0.5,1.1-0.1,1.4-0.7
		c0.9,0.3,0.3,0.9,0.1,1.2c-3.7,5.7-7.6,11.3-11.8,16.6c-1.2,1.5-2.3,3-3.4,4.4c-0.4,0.5-0.5,1.1-1.3,1.1
		C66.1,33.9,66.1,33.2,66.4,32.5z"/>
	<path class="st4" d="M83.2,20.5c1.6-3.8,4-7.1,6.5-10.4c0.1-0.2,0.5-0.2,0.6-0.3C88.7,13.9,86.4,17.4,83.2,20.5z"/>
	<path class="st11" d="M57.7,141.9c-1.8,1.3-3.9,1.5-5.7,2.4c-0.6,0.3-1.3,0.3-1.8,0.7c-5.4,1.7-10,0.2-14.2-3.2
		c-1.3-1.7-3.2-2.8-4.2-4.6c0.1-1.1-0.3-1.9-0.6-2.9c-1.6-3.9-3-7.8-2.9-12c0-0.3,0-0.5,0-0.7c0.5,0.1,0.6,0.4,0.7,0.8
		c1.1,5.4,3.5,10.1,6.6,14.7c1,1.5,2.4,2.8,4,3.7c4.2,2.4,8.6,2.5,13.2,1.7C54.3,142.1,55.9,141.2,57.7,141.9z"/>
	<path class="st4" d="M31.7,137.2c1,1.9,3,3,4.2,4.6c-3.1-0.7-5.4-2.9-7.3-5.2c-2.9-3.6-5.6-7.2-7.9-11.2c-0.7-1.1-0.5-2.4-0.9-3.3
		c-0.9-1.8-1.4-3.6-2.3-5.3c-2.8-6.2-4.5-12.6-5.3-19.4c0.6,0.1,0.9-0.5,1.4-0.6c1.2,1.3,1.2,3,1.1,4.5c-0.5,5.1,1.5,9.5,3.6,14
		c0.9,3.1,2.6,6,4.2,8.9c0.3,1.1,1.1,1.9,1.7,2.9C26.4,130.4,28.7,134,31.7,137.2z"/>
	<path class="st11" d="M11.5,91.7c-0.7-3-1.2-5.9-0.9-8.9c1.5-0.1,2.3,0.9,3.2,1.8c1.7,1.4,2.9,3.2,4.8,4.2c0.6,0.7,1.6,1.3,1.4,2.5
		c-0.5,0.4-0.9,0.7-1.4,1.1c-0.7,0.4-1.4,0.6-1.8,1.4c-0.5,0.3-0.9,0.5-1.4,0.7c-1-0.1-1.5-0.9-1.9-1.6C13,92.2,12.4,91.9,11.5,91.7
		z"/>
	<path class="st12" d="M18.6,88.9c-1.9-1-3.1-3-4.8-4.2c-1-0.8-1.8-1.8-3.2-1.8c-0.1-0.9-0.1-1.9-0.1-2.9c0.1-0.1,0.1-0.3,0.1-0.4
		c0.6,0,1.1,0.1,1.7,0.4C15.7,82,18.1,84.8,18.6,88.9z"/>
	<path class="st13" d="M11.5,91.7c0.8,0.1,1.4,0.6,1.9,1.3c0.5,0.7,1,1.4,1.9,1.6c-0.6,0.7-1.2,1.4-1.8,2.1
		c-0.5,0.2-0.7,0.7-1.4,0.6C12.5,95.4,11.4,93.7,11.5,91.7z"/>
	<path class="st13" d="M112.1,126.2c-1.9,3.8-4.4,7.1-7.1,10.3c0-0.6,0-1.3,0.2-1.9c1.4-4.2,2.3-8.3,2.3-12.6
		c0.2-4.3-1.1-8.1-4.4-11c-2.4-2-4.2-4.4-6.3-6.8c-1.3-1.6-3.1-2.9-3.8-5c-1.8-5-3.4-9.8-4.5-14.9c-0.3-1.1-0.5-2.1-1.2-3.1
		c-0.9-1.3-1.4-2.7-1.3-4.2c1.6-1.4,3.8-2,5.4-3.5c0.6,0.1,0.9-0.6,1.4-0.7c0,4,0.1,7.9,0.6,11.9c0.9,5.8,2.6,11.5,5.8,16.5
		c1.9,3.1,4.6,5.8,6.9,8.7c3,3.6,5,7.7,5.4,12.4C111.4,123.3,111.2,124.9,112.1,126.2z"/>
	<path class="st14" d="M112.1,126.2c-0.8-1.3-0.6-2.9-0.7-4.2c-0.6-4.7-2.4-8.8-5.4-12.4c-2.4-2.8-5-5.5-6.9-8.7
		c-3.2-5-4.8-10.6-5.8-16.5c-0.6-4-0.7-7.9-0.6-11.9c1.7-1.1,3.2-2.1,5-3.2c0.1,2.6-0.6,5.1-0.7,7.8c-0.2,4.9,0.3,9.7,1.9,14.3
		c1.3,3.6,2.6,7.3,5.1,10.4c3.3,4.2,6.9,8.1,10.3,12.3c1.1,1.3,0.9,3.1,2.3,4.2C115,121,113.8,123.8,112.1,126.2z"/>
	<path class="st11" d="M107.4,121.9c0,4.3-0.9,8.6-2.3,12.6c-0.3,0.6-0.2,1.3-0.2,1.9c-3.6,5-8.1,8.6-14.5,9.1
		c-2.3,0.2-4.6-0.6-6.9-1.3c-1.8-0.8-3.6-1.6-5.4-2.4c0.6-0.6,1.1-0.4,1.8-0.3c2.8,0.4,5.5,0.9,8.4,0.9c5,0.1,11.3-4.8,13-9.4
		c1.8-4.8,2-9.8,1-14.9c0.1-0.7-0.3-1.5-0.6-2.2c-0.3-0.6-1.1-1.4-0.1-1.9c0.9-0.5,1.3,0.6,1.7,1.2c0.2,0.3,0.3,0.6,0.4,0.7
		c1.1,2.4,1.9,5,1.8,7.7C107,123.6,106.2,122,107.4,121.9z"/>
	<path class="st6" d="M116.1,118.3c-1.3-1.1-1.2-3-2.3-4.2c-3.3-4.2-6.9-8.1-10.3-12.3c-2.5-3.1-3.8-6.8-5.1-10.4
		c-1.6-4.6-2-9.4-1.9-14.3c0.1-2.6,0.7-5.1,0.7-7.8c1-1.3,2.7-1.8,3.6-3.1c0.3,0,0.5-0.1,0.6-0.1c-0.4,3.2-1.4,6.4-1.8,9.7
		c-0.7,5.8-0.3,11.5,1.9,17c1.4,3.4,2.6,6.9,5,9.7c1.7,1.9,3.1,4.1,5.6,5.3c0,0.1,0,0.3,0,0.4c-0.1,0.6,0.1,1,0.6,1.4
		c1.8,1.9,3.1,4.2,4.1,6.7C116.9,117.1,116.5,117.7,116.1,118.3z"/>
	<path class="st4" d="M116.9,116.2c-1-2.4-2.3-4.8-4.1-6.7c-0.5-0.5-0.6-0.9-0.6-1.4c1.6,1.1,3,2.4,4.6,3.2c1.6,0.8,1.7,1.8,1,3.1
		C117.6,115,117.7,115.9,116.9,116.2z"/>
	<path class="st10" d="M95.3,43.5c2.2-0.4,4.2,0.4,6.3,1.2c0.6,0.3,1.5,0.3,2,0.8c-0.1,0.1-0.3,0.2-0.4,0.4c-1.6,3-3.2,6-4.4,9.1
		c-0.2,0.5-0.3,1.4-1.3,0.8c-1.3-0.7-2.4-0.3-3.6,0.6c-1.8,1.1-2.6,3-4.2,4.2c-4,2.8-8.1,5-12.4,7.4c-3.3,1.9-6.8,3.2-10.3,4.8
		c-6.9,3-14.3,4.7-21.3,7.3c-3.5,1.3-7.3,2.1-11,3c-2.5,0.6-5,1.4-7.5,1.8c-2.4,0.5-4.9-0.3-6.6-2.4c-1.8-2.1-4-3.8-6.2-5.3
		c-1.1-0.7-2.1-1.5-3.6-1.4c0.1-2.2,0.5-4.3,1.1-6.4c1,0.1,2,0.1,3,0.5c1.7,0.6,3.4,1.3,4.3,2.9c1.3,2.1,4.9,4.2,7.2,3.8
		c4.6-0.7,9.1-2.1,13.7-3.4c6.1-1.8,12.1-3.9,18-6.1c4.7-1.8,9.6-3,12.8-7.3c1.4-1.9,3.8-3,5.3-4.8c0.3-0.4,0.9-0.6,1.4-0.6
		c3.6-0.8,7.3-1.5,10-4.5c0.2-0.2,0.6-0.3,0.7-0.5c2.4-1.3,4.2-3.7,6.6-5C95.1,44.3,95.1,43.8,95.3,43.5z"/>
	<path class="st9" d="M95.3,43.5c-0.1,0.3-0.1,0.6-0.4,0.7c-2.5,1.3-4.2,3.6-6.6,5c-0.3,0.1-0.6,0.3-0.7,0.5c-2.7,3-6.4,3.7-10,4.5
		c-0.5,0.1-1.1,0.3-1.4,0.6c-1.5,1.9-4,3-5.3,4.8c-3.2,4.4-8.1,5.6-12.8,7.3c-6,2.2-12,4.2-18,6.1c-4.5,1.3-8.9,2.7-13.7,3.4
		c-2.3,0.4-6-1.7-7.2-3.8c-0.9-1.6-2.7-2.3-4.3-2.9c-0.9-0.3-1.9-0.3-3-0.5c0.6-3,1.6-5.7,3.1-8.3c0.3,0.3,0.5,0.5,0.9,0.5
		c2.6,0.2,4.8,1.6,7,2.6c3,1.4,6,1.4,8.9,1.1c3.7-0.4,7.3-1.8,10.9-2.8c4.8-1.2,8.5-4.5,12.7-6.6c0.3-0.1,0.5-0.5,0.6-0.7
		c1.2-1.8,2.7-3.1,4.3-4.3c0.7-0.6,1.8-0.8,2.2-1.9c0.1-0.1,0.3-0.1,0.4-0.2c0.1-0.1,0.3-0.1,0.4-0.1c0.4,0.1,0.7,0.1,1.1,0.1
		c2.2,0.3,4.4,0.3,6.5-0.8c3.8-1.3,7.6-2.7,11.3-4c3.4-0.8,6.9-1.3,10.4-1.1C93.5,42.9,94.4,42.9,95.3,43.5z"/>
	<path class="st8" d="M62.6,48.9c-0.4,1.1-1.4,1.3-2.2,1.9c-1.7,1.3-3.1,2.7-4.3,4.3c-0.2,0.3-0.4,0.6-0.6,0.7
		c-4.3,2.1-7.9,5.4-12.7,6.6c-3.6,0.9-7.2,2.4-10.9,2.8c-2.9,0.3-6,0.3-8.9-1.1c-2.2-1.1-4.4-2.4-7-2.6c-0.4-0.1-0.6-0.2-0.9-0.5
		c2.4-5,5.7-9,10.3-12.1c6.1-4.2,12.8-6.4,20.4-5.7c0.2,0.1,0.3,0.1,0.5,0.1c2.8,0.5,5.4,1.3,8,2.1c2.1,1.1,4.2,1.8,6.6,2.3
		c0.2,0.5,0.4,0.7,0.9,0.6C62,48.3,62.2,48.6,62.6,48.9z"/>
	<path class="st7" d="M10.7,75.8c1.4-0.1,2.5,0.7,3.6,1.4c2.3,1.5,4.4,3.1,6.2,5.3c1.8,2.1,4.2,2.9,6.6,2.4c2.5-0.5,5-1.3,7.5-1.8
		c3.7-0.9,7.5-1.7,11-3c7-2.7,14.4-4.3,21.3-7.3c3.5-1.5,7-2.9,10.3-4.8c4.2-2.4,8.4-4.6,12.4-7.4c1.7-1.2,2.6-3,4.2-4.2
		c1.2-0.7,2.3-1.3,3.6-0.6c1,0.6,1.1-0.4,1.3-0.8c1.2-3.2,3-6.1,4.4-9.1c0.1-0.1,0.3-0.3,0.4-0.4c1.3,0.1,2,1.1,3,1.6
		c-1.9,3.4-4.3,6.6-6.5,10c-3.1,4.9-6.7,9.1-10.9,13c-1.8,1.3-4.1,1.8-6.1,2.4c-0.7,0.3-1.3,0.5-2.1,0c-1-0.6-2.2-0.3-3.1,0.5
		c-1.4,1.1-3.1,1.8-4.6,2c-3.6,0.5-6.8,2-10.2,3.2c-2.2,0.7-4.2,1.9-6.6,2.6c-3.6,0.9-6.9,2.4-10.5,3.3c-3.8,0.9-7.4,2.3-11.2,2.8
		c-0.6,0.1-1.3,0.3-1.4,1.1c-1.4,0.3-2.9,0.5-4.2,0.7c-3,0.7-6.1,1.4-8.9,2.8c0.1-1.1-0.9-1.7-1.4-2.5c-0.5-4.2-2.9-6.9-6.4-8.9
		c-0.6-0.3-1.1-0.5-1.7-0.4c-0.1-0.7-0.1-1.4-0.1-2.1c0-0.4,0-0.7,0-1.1C10.6,76.3,10.7,76,10.7,75.8z"/>
	<path class="st3" d="M10.5,76.5c0,0.4,0,0.7,0,1.1c-0.3-0.1-0.6-0.1-0.6-0.5C9.7,76.6,10.1,76.6,10.5,76.5z"/>
	<path class="st10" d="M46.1,43.4c-0.2-0.1-0.3-0.1-0.5-0.1C45.7,43.3,45.9,43.3,46.1,43.4z"/>
	<path class="st11" d="M101,66.2c-0.9,1.4-2.6,1.9-3.6,3.1c-1.7,1.1-3.2,2.1-5,3.2c-0.6,0.2-0.8,0.7-1.4,0.7c1.1-3,3-5.7,5.3-7.8
		c5.6-5,7.9-11.8,11.1-18.1c2.3,1.1,4.3,2.4,5.9,4.5c-0.9,0.1-1.5,0.6-2,1.3c-2.4,3-4.9,5.8-7.2,8.8C102.9,63.4,101.4,64.5,101,66.2
		z"/>
	<path class="st12" d="M107.4,47.4c-3.1,6.4-5.5,13.2-11.1,18.1c-2.3,2-4.2,4.7-5.3,7.8c-1.6,1.5-3.7,2.1-5.4,3.5
		c-2.8,1-5.3,2.7-8.1,3.6c0.1-0.9,0.7-1.4,1.5-1.8c3.1-1.8,6.1-3.6,8.5-6.3c0.6-0.6,1.6-1.1,1.7-2.2c4.2-4,7.8-8.1,10.9-13
		c2.1-3.3,4.5-6.6,6.5-10C106.8,47.2,107.1,47.3,107.4,47.4z"/>
	<path class="st5" d="M101,66.2c0.5-1.8,1.9-2.9,3-4.2c2.3-3,4.8-5.9,7.2-8.8c0.6-0.6,1.1-1.1,2-1.3c1.3,0.5,0.7,1.2,0.3,1.9
		c-1.6,1.9-3.1,3.8-4.7,5.6c-1.8,1.5-3.4,3.1-5,5c-0.9,0.5-1.6,0.9-2.1,1.8C101.4,66.2,101.2,66.2,101,66.2z"/>
	<path class="st12" d="M102.3,118.3c1.1,5,0.8,10-1,14.9c-1.7,4.6-7.9,9.5-13,9.4c-2.9-0.1-5.6-0.6-8.4-0.9
		c-0.6-0.1-1.3-0.4-1.8,0.3c-0.8-0.2-1.6-0.4-2.4-0.5c-0.5-0.5-1-0.5-1.6-0.6c-1.7-0.5-3.4-0.4-5.1-0.5c-2.7-0.2-5.4-0.1-7.9,0.8
		c-1.3-0.1-2.3,0.7-3.5,0.7c-1.8-0.6-3.4,0.3-5.1,0.6c-4.6,0.8-8.9,0.7-13.2-1.7c-1.6-0.9-3-2.2-4-3.7c-3-4.4-5.4-9.3-6.6-14.7
		c-0.1-0.5-0.3-0.7-0.7-0.8c0-0.6,0.1-1.1,0-1.6c-0.1-1.4,0.1-2.4,1.9-1.7c0.8,0.3,1.3-0.1,1.3-1.1c0.1-1.9,0.7-3.7,2.8-4.5
		c0.5-0.2,0.6-0.6,0.8-0.8c0.8-1.1,1.9-1.6,3.3-1.7c1.3,0,2.4-0.3,3.5-0.9c3.1-1.9,6.6-3.2,10.1-3.8c4.2-0.6,8.5-0.6,12.6-0.5
		c1.4,0.1,2.9,0.3,4.3,0.1c1.1-0.2,2.6,0.1,3.6,0.6c1.2,0.6,2.3,1,3.6,1c1.6,0,3,0.7,4.4,1.3c1.8,0.6,3.6,2.1,5.4,2.1
		c4.2-0.1,7.1,3.4,11.2,4c0.7,0.1,1.3,0.9,1.9,1.5C100.3,116.3,101.3,117.3,102.3,118.3z M35.7,125.1c-0.1,0.1-0.3,0.3-0.3,0.5
		c-0.9,3.4,1.5,9.3,5,11.6c3.9,2.6,8,2.4,12.4,1.6c5-1,10-2.4,15.1-2.3c5.3,0.1,10.3,1.3,15.4,2.3c3.8,0.8,7.4,0.5,10.8-1.4
		c3.4-1.8,4.7-5,5.3-8.7c0.2-1.4,0.7-2.7-0.7-3.6c0.3-1.8-0.1-3.7-1.1-4.8c-1-1.2-1.9-2.4-3-3.6c-0.4-0.5-0.8-0.6-1.3-0.8
		c-3.1-1.6-6.3-3-9.8-3c-2.7-0.1-5.1-1.3-7.7-1.9c-3.8-0.9-7.8-0.2-11.5-1.6c-0.3-0.1-0.6,0.1-1,0.1c-2.5,0-4.9,1.1-7.3,0.7
		c-2.7-0.4-5.1,0.6-7.5,1.2c-2.4,0.6-4.6,1.5-7.1,1.7c-3.6,0.3-5.1,1.4-5.5,4.4C35.4,120,35.1,122.6,35.7,125.1z"/>
	<path class="st6" d="M61.2,141c2.6-0.9,5.3-0.9,7.9-0.8c1.7,0.1,3.4-0.1,5.1,0.5c0.6,0.2,1.1,0.3,1.6,0.6c-0.6,0.7-1.3,0.6-1.9,0.5
		c-4-0.6-7.9-0.5-12-0.1C61.4,141.7,61.2,141.4,61.2,141z"/>
	<path class="st6" d="M61.6,48.4c-0.6,0.3-0.7-0.1-0.9-0.6C61.1,47.8,61.5,47.9,61.6,48.4z"/>
	<path class="st6" d="M63.2,48.6c-0.1,0.1-0.3,0.1-0.4,0.1C63.1,48.7,63.2,48.6,63.2,48.6z"/>
	<path class="st15" d="M102.3,118.3c-1-0.9-2.1-1.9-3.1-3c-0.6-0.6-1.3-1.4-1.9-1.5c-4-0.5-6.8-4-11.2-4c-1.8,0.1-3.7-1.4-5.4-2.1
		c-1.4-0.6-2.8-1.3-4.4-1.3c-1.3,0-2.4-0.4-3.6-1c-1-0.6-2.4-0.7-3.6-0.6c-1.5,0.3-3-0.1-4.3-0.1c-4.2-0.1-8.6-0.1-12.6,0.5
		c-3.4,0.6-7,1.9-10.1,3.8c-1.1,0.6-2.3,0.9-3.5,0.9c-1.4,0-2.5,0.6-3.3,1.7c-0.3,0.4-0.5,0.7-0.8,0.8c-2,0.8-2.7,2.5-2.8,4.5
		c-0.1,0.9-0.5,1.4-1.3,1.1c-1.8-0.7-2,0.2-1.9,1.7c0.1,0.6,0,1.1,0,1.6c0,0.3,0,0.5,0,0.7c-1.4-0.3-1.9-1.2-2.6-2.4
		c-1.8-3.2-0.7-6.6-0.5-9.9c0.2-1.8,0-3.7,0.6-5.6c1-3,1.6-6,1.1-9.3c-0.3-1.6-0.7-4.1,1.8-5c0.7-0.3,0.1-1,0.1-1.6
		c1.4-0.3,2.9-0.5,4.2-0.7c1.9,0.1,3.8-0.3,5.6-0.3c6.8,0,13.7-0.3,20.3-1.5c6.4-1.2,12.5-3,18.4-5.6c2.9-0.8,5.4-2.6,8.1-3.6
		c-0.2,1.6,0.3,3,1.3,4.2c0.7,0.9,0.9,1.9,1.2,3.1c1.1,5.1,2.9,10,4.5,14.9c0.7,2.1,2.5,3.4,3.8,5c1.9,2.4,3.9,4.8,6.3,6.8
		c3.4,2.9,4.6,6.6,4.4,11c-1.2,0.1-0.4,1.8-1.7,1.9c0.2-2.8-0.6-5.3-1.8-7.7c-0.1-0.3-0.2-0.6-0.4-0.7c-0.5-0.6-0.7-1.7-1.7-1.2
		c-1,0.6-0.3,1.3,0.1,1.9C102.2,116.9,102.5,117.5,102.3,118.3z"/>
	<path class="st13" d="M28.8,88.5c0,0.6,0.7,1.3-0.1,1.6c-2.7,0.9-2.1,3.4-1.8,5c0.6,3.2-0.1,6.3-1.1,9.3c-0.6,1.8-0.5,3.8-0.6,5.6
		c-0.3,3.2-1.3,6.6,0.5,9.9c0.6,1.2,1.1,2.1,2.6,2.4c-0.1,4.2,1.3,8.2,2.9,12c0.5,0.9,0.8,1.8,0.6,2.9c-3-3.1-5.3-6.6-7.6-10.3
		c-0.6-0.9-1.4-1.8-1.7-2.9c0.9-1.8,0.2-3.5-0.2-5.1c-0.9-4.8-1.4-9.7-1.9-14.5c-0.5-3.6-0.7-7.3-1.1-10.8c-0.1-0.6-0.3-0.9-0.7-1.1
		c0.5-0.4,0.9-0.7,1.4-1.1C22.8,89.9,25.8,89.2,28.8,88.5z"/>
	<path class="st14" d="M18.6,92.4c0.5,0.3,0.6,0.6,0.7,1.1c0.4,3.6,0.6,7.3,1.1,10.8c0.6,4.8,1,9.7,1.9,14.5
		c0.4,1.7,1.1,3.4,0.2,5.1c-1.7-2.9-3.3-5.7-4.2-8.9c0.9-1.7,0.1-3.4,0.1-5.1c-0.3-5.4-0.5-10.8-1.5-16.1
		C17.2,93.1,17.9,92.8,18.6,92.4z"/>
	<path class="st6" d="M16.8,93.9c1,5.4,1.3,10.8,1.5,16.1c0.1,1.7,0.9,3.4-0.1,5.1c-2.1-4.4-4-8.9-3.6-14c0.1-1.6,0.1-3.2-1.1-4.5
		c0.6-0.7,1.2-1.4,1.8-2.1C15.9,94.4,16.4,94.1,16.8,93.9z"/>
	<path class="st16" d="M77.5,80.3C71.6,83,65.4,84.9,59.1,86c-6.7,1.3-13.5,1.5-20.3,1.5c-1.8,0-3.8,0.4-5.6,0.3
		c0.1-0.8,0.7-0.9,1.4-1.1c3.9-0.6,7.5-1.8,11.2-2.8c3.6-0.9,6.9-2.4,10.5-3.3c2.3-0.6,4.3-1.8,6.6-2.6c3.3-1.2,6.6-2.8,10.2-3.2
		c1.6-0.2,3.2-0.9,4.6-2c0.9-0.7,2.1-1,3.1-0.5c0.8,0.5,1.4,0.3,2.1,0c2.1-0.6,4.2-1.1,6.1-2.4c-0.1,1.1-1.1,1.5-1.7,2.2
		c-2.4,2.7-5.4,4.5-8.5,6.3C78.3,78.9,77.6,79.5,77.5,80.3z"/>
	<path class="st7" d="M98.5,125.1c1.5,0.9,0.9,2.3,0.7,3.6c-0.6,3.6-1.8,6.8-5.3,8.7c-3.4,1.8-6.9,2.2-10.8,1.4
		c-5.1-1.1-10.2-2.3-15.4-2.3c-5.1-0.1-10.1,1.3-15.1,2.3c-4.3,0.9-8.5,1-12.4-1.6c-3.4-2.4-6-8.1-5-11.6c0.1-0.2,0.2-0.3,0.3-0.5
		c0.6,0.4,1.1,0.9,1.8,0.3c3.7-3.2,8.7-3.2,13-4.8c5.6-2.1,11.6-1.3,17.5-1.3c4.2-0.1,8.8-0.1,12.6,2.6c0.1,0.1,0.4,0.1,0.6,0.1
		c3.8,0.5,7.8,0.3,11.3,2.4c0.3,0.1,0.6,0.1,0.9,0.1c1.1-0.1,2.1,0.3,2.8,0.8C97,126,97.7,125.7,98.5,125.1z"/>
	<path class="st16" d="M98.5,125.1c-0.7,0.6-1.4,0.9-2.3,0.1c-0.7-0.6-1.8-0.9-2.8-0.8c-0.3,0.1-0.6,0.1-0.9-0.1
		c-3.4-2.2-7.5-2-11.3-2.4c-0.2,0-0.5,0-0.6-0.1c-3.9-2.6-8.5-2.6-12.6-2.6c-5.8,0.1-11.9-0.7-17.5,1.3c-4.3,1.6-9.3,1.6-13,4.8
		c-0.7,0.6-1.3,0.1-1.8-0.3c-0.6-2.6-0.3-5.1,0.1-7.7c0.4-3,1.9-4.2,5.5-4.4c2.4-0.2,4.8-1,7.1-1.7s4.8-1.6,7.5-1.2
		c2.4,0.3,4.9-0.7,7.3-0.7c0.4,0,0.7-0.3,1-0.1c3.7,1.4,7.8,0.6,11.5,1.6c2.6,0.6,4.9,1.9,7.7,1.9c3.6,0.1,6.7,1.5,9.8,3
		c0.5,0.3,0.9,0.5,1.3,0.8c1,1.2,1.9,2.4,3,3.6C98.3,121.4,98.8,123.3,98.5,125.1z"/>
</g>
</svg>
