<?xml version="1.0" encoding="utf-8"?>
<!-- Generator: Adobe Illustrator 20.1.0, SVG Export Plug-In . SVG Version: 6.00 Build 0)  -->
<svg version="1.1" id="Layer_1" xmlns="http://www.w3.org/2000/svg" xmlns:xlink="http://www.w3.org/1999/xlink" x="0px" y="0px"
	 viewBox="0 0 600 169.3" style="enable-background:new 0 0 600 169.3;" xml:space="preserve">
<style type="text/css">
	.st0{fill:#FFFFFF;}
	.st1{fill:#E03C3F;}
	.st2{fill:#963F98;}
	.st3{fill:#FDB826;}
	.st4{fill:#F58320;}
	.st5{fill:#63BC47;}
	.st6{fill:#149CD8;}
	.st7{fill:#4078BC;}
	.st8{fill:#FCC89B;}
	.st9{fill:#D63C4B;}
	.st10{fill:#B5D4F0;}
	.st11{fill:none;}
</style>
<title>Asset 1</title>
<g id="Layer_2">
	<g id="Layer_1-2">
		<path class="st0" d="M73.3,138.8c2.8,0.1,5.5,0.7,8,1.7c2.2,0.9,4.3,2,6.6,2.8c2.7,1.1,5.7,1.4,8.6,1.1c3.3-0.5,6.4-1.9,8.9-4
			c3.2-2.5,6-5.4,8.5-8.6c1.4-1.8,2.8-3.6,4-5.6c0,0,0-0.1,0.1-0.1h0l0.2-0.2c3.1-4.4,5.8-9.1,8-14c0.5-1.1,1.1-2.2,1.5-3.3l0,0
			c0.1,0,0.1,0,0.1-0.1c0-0.1,0.2-0.3,0.3-0.4c0.4-0.8,0.4-0.8-0.4-1.1c-5.7-2.3-10.6-6.3-14-11.5c-0.9-1.4-1.7-2.9-2.4-4.5
			c-0.1-0.2-0.1-0.3-0.2-0.4c-1.6-3.9-2.4-8-2.4-12.2c0-1.6,0.2-3.3,0.4-4.9c0-0.1,0.1-0.1,0.1-0.2c0.7-3.8,2.1-7.5,4.3-10.7
			c1.5-2.2,3.3-4.3,5.4-6c1.6-1.3,3.4-2.5,5.2-3.5c0.4-0.2,0.4-0.4,0.1-0.6c-2.2-2.7-4.7-5.1-7.4-7.2c-4.4-3.3-9.4-5.5-14.8-6.5
			c-2.7-0.4-5.4-0.5-8-0.2c-2.2,0.2-4.3,0.6-6.4,1.2c-2.8,0.8-5.6,1.9-8.3,2.9c-4.5,1.8-9.5,2-14.1,0.7c-2.7-0.8-5.5-1.8-8.2-2.7
			c-3.5-1.3-7.2-2-10.9-2.2c-0.9,0-1.9,0-2.7,0.1c-1.5,0.1-3,0.3-4.4,0.6c-10,2.4-17.5,8.4-23,16.9c-0.1,0.2-0.3,0.4-0.4,0.5
			c-1.9,3.1-3.2,6.4-4.2,9.9c-0.7,2.3-1.1,4.7-1.3,7.2c-0.2,1.3-0.4,2.6-0.4,4c0,1.9-0.1,3.9,0.1,5.7c-0.1,0.1-0.1,0.1,0,0.1
			c0,0.8,0.1,1.5,0.2,2.3c0.1,1.8,0.3,3.5,0.6,5.3v0.4c0.4,2.8,1.1,5.6,1.8,8.3c0.8,3,1.8,5.9,2.9,8.8c0.1,0.2,0.1,0.4,0.2,0.5
			c1.2,2.9,2.4,5.7,3.9,8.5c1.5,3,3.2,5.8,5.1,8.6l0.1,0.1c0.1,0.1,0.1,0.3,0.2,0.4c1.6,2.3,3.2,4.6,4.9,6.7
			c2.7,3.4,5.9,6.4,9.6,8.7c3.6,2.2,7.9,3,12,2.2c2.3-0.4,4.5-1.2,6.5-2.2c2.9-1.4,6.1-2.4,9.3-3c2.2-0.4,4.5-0.4,6.7-0.3
			L73.3,138.8z M65.9,36.1c0,1.2,0.1,2.4,0.3,3.5c0.1,0.4,0.2,0.5,0.5,0.5c2.4,0,4.8-0.4,7.2-1.1c6.8-2.2,12.6-6.8,16.3-12.9
			c2.9-4.4,4.6-9.5,4.9-14.7c0.1-1.6,0-3.1-0.2-4.7c-0.1-0.6-0.4-0.5-0.7-0.5c-1,0.1-2.1,0.2-3.1,0.4C81.7,9,74.4,14.3,69.6,23
			C67.3,27,66,31.5,65.9,36.1z"/>
		<path class="st1" d="M111,91.1c0.7,1.5,1.5,3,2.4,4.5c3.4,5.2,8.3,9.2,14,11.5c0.8,0.4,0.8,0.4,0.4,1.1c-0.1,0.2-0.2,0.3-0.3,0.4
			l-0.1,0.1H14.6c-1.1-2.9-2.1-5.8-2.9-8.8c-0.7-2.7-1.3-5.5-1.8-8.3v-0.4h92.6C105.3,91.1,108.2,91.1,111,91.1z"/>
		<path class="st2" d="M14.6,108.7h112.9c-0.4,1.1-1,2.2-1.5,3.3c-2.3,4.9-5,9.6-8,14c-0.1,0.1-0.1,0.2-0.2,0.2h-94
			c-1.9-2.8-3.6-5.6-5.1-8.6c-1.4-2.8-2.7-5.6-3.9-8.5C14.7,109,14.7,108.9,14.6,108.7z"/>
		<path class="st3" d="M9.4,73.6c0.3-2.4,0.7-4.8,1.3-7.2c0.9-3.5,2.3-6.8,4.2-9.9c0.1-0.2,0.3-0.4,0.4-0.5c0.2,0.1,0.5,0.1,0.7,0.1
			h101.6c0.5,0,0.8,0.1,1,0.6c-2,1.8-3.9,3.8-5.4,6c-2.2,3.2-3.6,6.9-4.3,10.7c0,0.1,0,0.1-0.1,0.2H9.4z"/>
		<path class="st4" d="M9.4,73.6h99.3c-1,5.7-0.3,11.7,1.9,17c0.1,0.2,0.1,0.3,0.2,0.4H9.9c-0.4-1.8-0.4-3.5-0.6-5.3
			c-0.1-0.8-0.1-1.5-0.2-2.3v-0.1C9,81.4,9,79.5,9,77.6C9.1,76.2,9.4,74.9,9.4,73.6z"/>
		<path class="st5" d="M118.7,56.6c-0.1-0.5-0.4-0.6-1-0.6H16.1c-0.3,0-0.5,0.1-0.7-0.1c5.7-8.5,13.1-14.4,23-16.9
			c1.4-0.3,2.9-0.5,4.4-0.6c0.9-0.1,1.9-0.1,2.7-0.1c3.7,0.2,7.4,0.9,10.9,2.2c2.7,1,5.4,1.9,8.2,2.7c4.7,1.3,9.6,1.1,14.1-0.7
			c2.7-1.1,5.5-2.1,8.3-2.9c2.1-0.6,4.3-1,6.4-1.2c2.7-0.3,5.4-0.2,8,0.2c5.4,1,10.5,3.2,14.8,6.5c2.7,2.1,5.2,4.5,7.4,7.2
			c0.3,0.4,0.3,0.4-0.1,0.6C122,54.1,120.3,55.3,118.7,56.6z"/>
		<path class="st6" d="M117.8,126.3c-1.2,1.9-2.6,3.7-4,5.6c-2.4,3.2-5.3,6.1-8.5,8.6c-2.6,2.1-5.7,3.4-8.9,4
			c-2.9,0.4-5.9,0-8.6-1.1c-2.2-0.8-4.3-1.9-6.6-2.8c-2.6-1-5.3-1.6-8-1.7c-0.1-0.1-0.1-0.1-0.2,0c-2.2-0.1-4.5,0-6.7,0.3
			c-3.2,0.6-6.3,1.6-9.3,3c-2.1,1-4.3,1.7-6.5,2.2c-4.1,0.7-8.4-0.1-12-2.2c-3.7-2.3-6.9-5.2-9.6-8.7c-1.8-2.1-3.4-4.4-4.9-6.7
			c-0.1-0.1-0.1-0.3-0.2-0.4h76.8C106.4,126.3,112.1,126.3,117.8,126.3z"/>
		<path class="st5" d="M65.9,36.1C66,31.5,67.3,27,69.6,23c4.8-8.6,12.1-14,21.5-16.3c1-0.2,2-0.4,3.1-0.4c0.4,0,0.6-0.1,0.7,0.5
			c0.2,1.5,0.3,3.1,0.2,4.7c-0.4,5.3-2.1,10.3-4.9,14.7c-3.7,6.1-9.5,10.7-16.3,12.9c-2.3,0.8-4.7,1.1-7.2,1.1
			c-0.3,0-0.5-0.1-0.5-0.4c0,0,0-0.1,0-0.1C66.1,38.4,66,37.2,65.9,36.1z"/>
		<path class="st7" d="M117.8,126.3h-94l-0.1-0.1h93.3C117.3,126.2,117.6,126.2,117.8,126.3z"/>
		<path class="st8" d="M9.1,83.4"/>
		<path class="st9" d="M127.5,108.7L127.5,108.7C127.6,108.7,127.6,108.7,127.5,108.7L127.5,108.7z"/>
		<path class="st10" d="M73.2,138.8c0.1-0.1,0.1-0.1,0.2,0H73.2z"/>
		<path class="st11" d="M-2.3-14.8"/>
		<path d="M259.4,125c-0.4-7.2-0.8-15.9-0.7-22.4h-0.2c-1.6,6.1-3.5,12.5-5.9,19.7l-8.2,25.2h-4.6l-7.5-24.7
			c-2.2-7.3-4.1-14-5.4-20.1h-0.2c-0.2,6.4-0.4,15.2-0.9,23l-1.2,22.3h-5.7l3.3-51.8h7.7l7.9,25.1c1.9,6.4,3.5,12.1,4.7,17.5h0.2
			c1.1-5.2,2.8-10.9,4.9-17.5l8.3-25.1h7.7l2.9,51.8h-5.9L259.4,125z"/>
		<path d="M274.9,110.5l7.3,22c0.8,2.5,1.6,5.4,2.1,7.6h0.2c0.6-2.2,1.3-5.1,2.1-7.8l6.6-21.8h6.4l-9.1,26.6
			c-4.3,12.8-7.3,19.3-11.5,23.3c-2.1,2.1-4.7,3.6-7.5,4.4l-1.5-5.7c2-0.7,3.8-1.8,5.3-3.3c2.2-2.1,4-4.7,5.1-7.5
			c0.2-0.5,0.4-1,0.4-1.6c-0.1-0.6-0.2-1.2-0.4-1.8l-12.4-34.3h6.7V110.5z"/>
		<path d="M302,122.2c0-4.4-0.1-8.1-0.3-11.7h5.3l0.2,7.3h0.3c1.5-5,5.2-8.1,9.3-8.1c0.6,0,1.2,0.1,1.8,0.3v6.4
			c-0.7-0.2-1.4-0.3-2.1-0.3c-4.3,0-7.3,3.6-8.2,8.7c-0.2,1-0.3,2.1-0.3,3.2v19.9h-6L302,122.2L302,122.2z"/>
		<path d="M328.4,100.1c0.2,2.1-1.3,3.9-3.4,4.1c-0.2,0-0.3,0-0.5,0c-2.2-0.1-3.8-1.9-3.7-4.1c0,0,0,0,0-0.1c0-2.4,1.6-4.2,3.8-4.2
			C326.8,95.8,328.4,97.7,328.4,100.1z M321.6,147.8v-37.3h6.1v37.3L321.6,147.8z"/>
		<path d="M353,147.8l-0.4-4.7h-0.2c-2.2,3.5-6.1,5.6-10.2,5.6c-6.8,0-10.2-5.3-10.2-10.7c0-9,7.2-14,20.1-13.9v-0.8
			c0-3.1-0.8-8.7-7.6-8.7c-3.1,0-6.2,1-8.7,2.7l-1.4-4.5c3.3-2.2,7.1-3.3,11-3.3c10.2,0,12.7,7.8,12.7,15.3v14c0,3,0.2,6,0.5,8.9
			H353z M352.1,128.8c-6.6-0.2-14.2,1.1-14.2,8.4c0,4.4,2.6,6.4,5.7,6.4c3.8,0,7.1-2.6,8.1-6.3c0.2-0.7,0.3-1.4,0.4-2.1V128.8z"/>
		<path d="M393.5,93.1v45c0,3.3,0.1,7.1,0.3,9.6h-5.5l-0.3-6.4h-0.2c-2,4.5-6.5,7.4-11.4,7.3c-8.1,0-14.3-7.6-14.3-18.9
			c-0.1-12.4,6.9-20,15-20c4.2-0.1,8.1,2,10.2,5.7h0.2V93.1H393.5z M387.4,125.7c0-0.9-0.1-1.9-0.3-2.8c-0.9-4.3-4.2-7.9-8.8-7.9
			c-6.3,0-10.1,6.2-10.1,14.4c0,7.5,3.4,13.8,9.9,13.8c4.1,0,7.9-3,8.9-8.1c0.2-1,0.3-1.9,0.3-2.9L387.4,125.7L387.4,125.7z"/>
	</g>
</g>
</svg>
