<?xml version="1.0" encoding="utf-8"?>
<!-- Generator: Adobe Illustrator 20.1.0, SVG Export Plug-In . SVG Version: 6.00 Build 0)  -->
<svg version="1.1" id="Layer_1" xmlns="http://www.w3.org/2000/svg" xmlns:xlink="http://www.w3.org/1999/xlink" x="0px" y="0px"
	 viewBox="0 0 600 150" style="enable-background:new 0 0 600 150;" xml:space="preserve">
<style type="text/css">
	.st0{fill:#FDFDFD;}
	.st1{fill:#F7F9F9;}
	.st2{fill:#CFCAC4;}
	.st3{fill:#D5D3CE;}
	.st4{fill:#F0F1F1;}
	.st5{fill:#C6C3BE;}
	.st6{fill:#E5E5E2;}
	.st7{fill:#979797;}
	.st8{fill:#7F7D7D;}
	.st9{fill:#DAD9D5;}
	.st10{fill:#908C83;}
	.st11{fill:#A4A394;}
	.st12{fill:#B2B0A8;}
	.st13{fill:#E0DFDC;}
	.st14{fill:#ECEDEC;}
	.st15{fill:#E8E8E7;}
</style>
<title>Asset 2</title>
<g id="Layer_2">
	<g id="Layer_1-2">
		<path d="M210.3,129.3c0.1,2.1,0.6,4.2,1.4,6.2c0.7,1.6,1.7,3,3,4.1c1.2,1,2.7,1.8,4.3,2.3c1.7,0.5,3.4,0.8,5.2,0.8
			c1.9,0.1,3.8-0.3,5.6-0.9c1.5-0.5,2.8-1.4,3.9-2.5c1-1,1.7-2.3,2.2-3.6c0.5-1.4,0.7-2.8,0.7-4.3c0.1-1.8-0.4-3.6-1.3-5.1
			c-0.9-1.3-2-2.4-3.3-3.2c-1.5-0.9-3.1-1.6-4.7-2c-1.8-0.5-3.6-0.9-5.5-1.4c-1.9-0.5-3.7-1-5.5-1.7c-1.7-0.6-3.3-1.5-4.7-2.7
			c-1.4-1.2-2.5-2.6-3.3-4.3c-0.9-2-1.4-4.3-1.3-6.5c0-1.8,0.4-3.7,1-5.4c0.7-1.8,1.7-3.4,3.1-4.6c1.5-1.4,3.3-2.5,5.2-3.2
			c4.7-1.6,9.7-1.6,14.4,0c2,0.7,3.7,2,5.1,3.5c1.3,1.5,2.4,3.2,3,5.1c0.7,2,1,4.1,1,6.3h-4.4c0.1-1.8-0.3-3.6-0.9-5.3
			c-0.6-1.4-1.5-2.7-2.7-3.7c-1.1-1-2.5-1.7-3.9-2.1c-1.4-0.5-2.9-0.7-4.5-0.7c-2-0.1-4,0.3-5.9,1.1c-1.5,0.7-2.8,1.6-3.8,2.8
			c-0.9,1.1-1.6,2.4-2,3.8c-0.4,1.4-0.5,2.8-0.2,4.2c0.2,1.5,0.9,3,1.9,4.2c1,1.1,2.3,2,3.7,2.6c1.5,0.7,3.1,1.2,4.7,1.6
			c1.7,0.5,3.5,0.9,5.3,1.3c1.8,0.5,3.5,1,5.2,1.7c1.6,0.6,3.1,1.5,4.5,2.7c1.3,1.2,2.4,2.6,3.1,4.3c0.8,2.1,1.2,4.3,1.1,6.5
			c0,5-1.5,8.9-4.6,11.7c-3.1,2.7-7.5,4.2-13.2,4.2c-2.4,0-4.8-0.4-7-1.1c-2.1-0.7-4-1.8-5.6-3.3c-1.6-1.5-2.9-3.4-3.7-5.5
			c-0.9-2.5-1.4-5.1-1.3-7.7L210.3,129.3L210.3,129.3L210.3,129.3z"/>
		<path d="M261.9,122.8c0.8-0.1,1.7-0.3,2.7-0.5c0.9-0.1,1.8-0.4,2.6-0.9c0.7-0.4,1.2-1,1.2-1.8c0.1-0.7,0.2-1.5,0.2-2.3
			c0.1-2.1-0.6-4.1-2-5.7c-1.3-1.5-3.6-2.2-6.7-2.2c-1.3,0-2.6,0.1-3.9,0.4c-1.1,0.3-2.1,0.7-3,1.4c-0.9,0.7-1.7,1.7-2.2,2.7
			c-0.6,1.3-1,2.8-1.1,4.3h-4.2c0-2,0.5-4,1.4-5.9c0.8-1.5,1.8-2.9,3.1-4c1.3-1.1,2.8-1.8,4.5-2.3c1.8-0.5,3.6-0.8,5.4-0.8
			c1.7,0,3.3,0.2,4.9,0.7c1.5,0.4,2.9,1.1,4.1,2c1.2,1,2.1,2.3,2.7,3.7c0.7,1.8,1,3.7,0.9,5.7v21.3c0,1.8,0.3,2.8,0.9,3.3
			c0.6,0.5,1.7,0.4,3.4-0.4v3.5c-0.3,0.1-0.8,0.3-1.4,0.5c-0.6,0.2-1.2,0.3-1.8,0.3c-0.6,0-1.2-0.1-1.8-0.2
			c-0.6-0.1-1.2-0.3-1.6-0.8c-0.4-0.4-0.7-0.8-0.9-1.3c-0.2-0.5-0.4-1.1-0.5-1.7c-0.1-0.7-0.1-1.3-0.1-2c-1.6,2-3.6,3.6-5.9,4.8
			c-2.2,1.1-4.7,1.7-7.2,1.6c-1.5,0-3-0.2-4.5-0.7c-1.4-0.4-2.7-1.2-3.8-2.1c-1.1-1-2-2.2-2.6-3.5c-0.7-1.6-1-3.2-0.9-4.9
			c0-6.6,4.1-10.5,12.2-11.7L261.9,122.8z M268.8,125c-1.7,0.8-3.4,1.3-5.2,1.6c-1.8,0.3-3.5,0.5-5.3,0.6c-2.6,0.1-5.1,0.9-7.3,2.4
			c-1.8,1.5-2.7,3.7-2.6,6c0,1.1,0.2,2.2,0.7,3.1c0.4,0.8,1,1.6,1.7,2.2c0.7,0.6,1.6,1,2.5,1.2c0.9,0.3,1.9,0.4,2.8,0.4
			c1.6,0,3.2-0.2,4.7-0.7c1.5-0.4,2.9-1.1,4.1-2.1c1.2-0.9,2.2-2.1,2.8-3.5c0.8-1.6,1.1-3.4,1-5.1L268.8,125L268.8,125z"/>
		<path d="M284.3,145.4h-4.1v-38.9h4.1v5.4c1.5-1.8,3.1-3.3,5-4.6c1.8-1.3,4-1.9,6.3-1.8c2.1,0,4.2,0.4,6.1,1.2
			c2,0.9,3.6,2.4,4.6,4.4c0.8,1.3,1.3,2.8,1.5,4.4c0.2,1.5,0.2,3.1,0.2,4.6v25.4h-4.1V120c0-3.5-0.7-6.2-2.1-7.9
			c-1.4-1.7-3.7-2.7-7-2.7c-1.2,0-2.3,0.2-3.4,0.7c-1,0.4-2,1-2.8,1.7c-0.8,0.7-1.5,1.5-2.1,2.4c-0.6,0.9-1,1.8-1.3,2.8
			c-0.4,1.2-0.6,2.4-0.8,3.6c-0.1,1.1-0.1,2.4-0.1,3.8V145.4z"/>
		<path d="M330.3,145.4V91.3h31.4v4.4h-26.8v19.5h24.4v4.4h-24.4v25.9L330.3,145.4z"/>
		<path d="M368.8,145.4h-4.1v-38.9h4.1v7.3h0.1c1.1-3.1,2.6-5.3,4.4-6.5c2.1-1.3,4.6-1.9,7.1-1.8v4.9c-2-0.1-3.9,0.3-5.7,1.2
			c-1.5,0.8-2.7,2-3.5,3.5c-0.9,1.6-1.5,3.3-1.8,5.1c-0.3,2-0.5,4.1-0.5,6.2L368.8,145.4L368.8,145.4z"/>
		<path d="M399.9,122.8c0.8-0.1,1.7-0.3,2.7-0.5c0.9-0.1,1.8-0.4,2.6-0.9c0.7-0.4,1.2-1,1.2-1.8c0.1-0.7,0.2-1.5,0.2-2.3
			c0.1-2.1-0.6-4.1-2-5.7c-1.3-1.5-3.6-2.2-6.7-2.2c-1.3,0-2.6,0.1-3.9,0.4c-1.1,0.3-2.1,0.7-3,1.4c-0.9,0.7-1.7,1.7-2.2,2.7
			c-0.6,1.3-1,2.8-1.1,4.3h-4.2c0-2,0.5-4,1.4-5.9c0.8-1.5,1.8-2.9,3.1-4c1.3-1.1,2.8-1.8,4.5-2.3c1.8-0.5,3.6-0.8,5.4-0.8
			c1.7,0,3.3,0.2,4.9,0.7c1.5,0.4,2.9,1.1,4.1,2c1.2,1,2.1,2.3,2.7,3.7c0.7,1.8,1,3.7,0.9,5.7v21.3c0,1.8,0.3,2.8,0.9,3.3
			c0.6,0.5,1.7,0.4,3.4-0.4v3.5c-0.3,0.1-0.8,0.3-1.4,0.5c-0.6,0.2-1.2,0.3-1.8,0.3c-0.6,0-1.2-0.1-1.8-0.2
			c-0.6-0.1-1.2-0.3-1.6-0.8c-0.4-0.4-0.7-0.8-0.9-1.3c-0.2-0.5-0.4-1.1-0.5-1.7c-0.1-0.7-0.1-1.3-0.1-2c-1.6,2-3.6,3.6-5.9,4.8
			c-2.2,1.1-4.7,1.7-7.2,1.6c-1.5,0-3-0.2-4.5-0.7c-1.4-0.4-2.7-1.2-3.8-2.1c-1.1-1-2-2.2-2.6-3.5c-0.7-1.6-1-3.2-0.9-4.9
			c0-6.6,4.1-10.5,12.2-11.7L399.9,122.8z M406.7,125c-1.7,0.8-3.4,1.3-5.2,1.6c-1.8,0.3-3.5,0.5-5.3,0.6c-2.6,0.1-5.1,0.9-7.3,2.4
			c-1.8,1.5-2.7,3.7-2.6,6c0,1.1,0.2,2.2,0.7,3.1c0.4,0.8,1,1.6,1.7,2.2c0.7,0.6,1.6,1,2.5,1.2c0.9,0.3,1.9,0.4,2.8,0.4
			c1.6,0,3.2-0.2,4.7-0.7c1.5-0.4,2.9-1.1,4.1-2.1c1.2-0.9,2.2-2.1,2.8-3.5c0.8-1.6,1.1-3.4,1-5.1L406.7,125L406.7,125z"/>
		<path d="M422.3,145.4h-4.1v-38.9h4.1v5.4c1.5-1.8,3.1-3.3,5-4.6c1.8-1.3,4-1.9,6.3-1.8c2.1,0,4.2,0.4,6.1,1.2
			c2,0.9,3.6,2.4,4.6,4.4c0.8,1.3,1.3,2.8,1.5,4.4c0.2,1.5,0.2,3.1,0.2,4.6v25.4h-4.1V120c0-3.5-0.7-6.2-2.1-7.9
			c-1.4-1.7-3.7-2.7-7-2.7c-1.2,0-2.3,0.2-3.4,0.7c-1,0.4-2,1-2.8,1.7c-0.8,0.7-1.5,1.5-2.1,2.4c-0.6,0.9-1,1.8-1.3,2.8
			c-0.4,1.2-0.6,2.4-0.8,3.6c-0.1,1.1-0.1,2.4-0.1,3.8V145.4z"/>
		<path d="M477.4,118.8c-0.6-2.6-1.8-4.9-3.7-6.8c-1.8-1.7-4.3-2.5-6.7-2.5c-1.9-0.1-3.7,0.4-5.3,1.4c-1.5,0.9-2.8,2.2-3.7,3.8
			c-1,1.7-1.7,3.4-2.1,5.3c-0.5,2-0.7,4-0.7,6c0,2,0.2,4,0.7,6c0.4,1.9,1.1,3.7,2.1,5.3c0.9,1.5,2.2,2.8,3.7,3.7
			c1.6,1,3.5,1.5,5.4,1.4c2.7,0.1,5.3-0.9,7.3-2.7c1.9-2.1,3.2-4.8,3.5-7.7h4.4c-0.3,2-0.9,4-1.7,5.9c-0.7,1.7-1.7,3.2-3,4.5
			c-1.3,1.3-2.8,2.3-4.5,2.9c-1.9,0.7-3.9,1.1-5.9,1c-2.5,0.1-5-0.5-7.2-1.6c-2-1-3.7-2.5-5-4.4c-1.4-2-2.4-4.2-2.9-6.5
			c-0.7-2.6-1-5.3-0.9-8.1c0-2.6,0.4-5.2,1-7.8c0.6-2.3,1.6-4.6,3-6.5c1.3-1.9,3-3.4,5-4.5c2.1-1.2,4.5-1.7,6.9-1.7
			c4.1,0,7.3,1,9.9,3.2s4.1,5.5,4.7,10h-4.3V118.8L477.4,118.8z"/>
		<path d="M487.4,98v-6.7h4.5V98H487.4z M487.5,145.4v-38.9h4.1v38.9H487.5z"/>
		<path d="M501.1,133.3c0.7,3.3,1.8,5.7,3.4,7.1c1.6,1.4,4,2.1,7.1,2.1c1.3,0,2.6-0.2,3.9-0.6c1-0.3,1.9-0.9,2.7-1.6
			c0.7-0.7,1.2-1.4,1.6-2.3c0.4-0.9,0.6-1.8,0.6-2.7c0.1-1.6-0.5-3.2-1.7-4.3c-1.2-1-2.7-1.7-4.2-2.2c-1.8-0.6-3.6-1-5.4-1.3
			c-1.9-0.4-3.7-0.9-5.4-1.7c-1.6-0.7-3.1-1.8-4.2-3.2c-1.2-1.7-1.8-3.8-1.7-6c-0.1-3,1.1-5.9,3.2-8.1c2.2-2.1,5.2-3.1,9.1-3.1
			c3.3-0.1,6.6,0.9,9.2,2.8c2.4,1.9,3.8,5,4.3,9.5h-4.2c-0.4-3-1.4-5.1-3-6.3c-1.9-1.3-4.1-1.9-6.3-1.8c-2.6,0-4.5,0.6-5.9,1.8
			c-1.3,1.2-2.1,3-2,4.8c-0.1,1.5,0.5,3,1.7,4c1.2,1,2.6,1.8,4.2,2.3c1.8,0.6,3.6,1.1,5.4,1.5c1.9,0.5,3.7,1.1,5.4,1.9
			c1.6,0.8,3,1.9,4.2,3.3c1.2,1.7,1.8,3.8,1.7,5.9c0,1.7-0.3,3.4-1,4.9c-0.7,1.4-1.7,2.6-2.9,3.6c-1.3,1-2.8,1.7-4.5,2.2
			c-1.9,0.5-3.8,0.8-5.7,0.8c-1.9,0-3.8-0.3-5.5-1c-1.6-0.6-2.9-1.6-4.1-2.8c-1.1-1.2-2-2.6-2.7-4.2c-0.6-1.7-1-3.4-1-5.2H501.1z"/>
		<path d="M554.2,118.8c-0.6-2.6-1.8-4.9-3.7-6.8c-1.8-1.7-4.3-2.5-6.7-2.5c-1.9-0.1-3.7,0.4-5.3,1.4c-1.5,0.9-2.8,2.2-3.7,3.8
			c-1,1.7-1.7,3.4-2.1,5.3c-0.5,2-0.7,4-0.7,6c0,2,0.2,4,0.7,6c0.4,1.9,1.1,3.7,2.1,5.3c0.9,1.5,2.2,2.8,3.7,3.7
			c1.6,1,3.5,1.5,5.4,1.4c2.7,0.1,5.3-0.9,7.3-2.7c1.9-2.1,3.2-4.8,3.5-7.7h4.4c-0.3,2-0.9,4-1.7,5.9c-0.7,1.7-1.7,3.2-3,4.5
			c-1.3,1.3-2.8,2.3-4.5,2.9c-1.9,0.7-3.9,1.1-5.9,1c-2.5,0.1-5-0.5-7.2-1.6c-2-1-3.7-2.5-5-4.4c-1.4-2-2.4-4.2-2.9-6.5
			c-0.7-2.6-1-5.3-0.9-8.1c0-2.6,0.4-5.2,1-7.8c0.6-2.3,1.6-4.6,3-6.5c1.3-1.9,3-3.4,5-4.5c2.1-1.2,4.5-1.7,6.9-1.7
			c4.1,0,7.3,1,9.9,3.2s4.1,5.5,4.7,10h-4.3L554.2,118.8L554.2,118.8z"/>
		<path d="M577.6,146.4c-2.2,0-4.3-0.5-6.3-1.3c-2-0.8-3.7-2.1-5.1-3.8c-1.6-1.9-2.7-4-3.5-6.3c-0.9-2.9-1.4-5.9-1.3-8.9
			c0-2.7,0.4-5.4,1-8.1c0.6-2.3,1.6-4.6,3-6.5c1.3-1.9,3.1-3.4,5.1-4.4c2.2-1.1,4.6-1.7,7.1-1.6c2.5,0,5,0.5,7.2,1.6
			c2,1.1,3.7,2.6,5.1,4.4c1.4,2,2.4,4.2,3,6.5c0.7,2.6,1,5.3,0.9,8.1c0,2.9-0.3,5.7-1.1,8.4c-0.7,2.3-1.8,4.5-3.3,6.4
			c-1.4,1.8-3.1,3.2-5.1,4.2C582.2,146,579.9,146.5,577.6,146.4z M589.5,126c0-2.2-0.2-4.3-0.7-6.4c-0.4-1.8-1.1-3.6-2.1-5.2
			c-0.9-1.5-2.2-2.7-3.7-3.5c-1.7-0.9-3.6-1.3-5.5-1.2c-1.9-0.1-3.8,0.4-5.4,1.4c-1.5,0.9-2.8,2.2-3.7,3.7c-1,1.6-1.7,3.4-2.1,5.3
			c-0.5,2-0.7,4.1-0.7,6.2c0,2.2,0.3,4.5,0.8,6.6c0.4,1.9,1.2,3.6,2.3,5.2c1,1.4,2.2,2.6,3.7,3.4c1.6,0.8,3.3,1.2,5.1,1.2
			c1.9,0.1,3.8-0.4,5.4-1.4c1.5-0.9,2.8-2.2,3.7-3.7c1-1.6,1.7-3.4,2.1-5.3C589.3,130.2,589.5,128.1,589.5,126L589.5,126z"/>
		<g id="_30M1Ms.tif">
			<path class="st0" d="M84,9.7h27.1c1.3,0,1.6,0.3,1.6,1.6v135c0,1.3-0.3,1.6-1.6,1.6H4.2c-1.3,0-1.6-0.3-1.6-1.6
				c0-45,0.1-90,0-135c0-1.8,0.8-1.6,1.9-1.6h78c-0.8,0.7-2.8,0.9-0.7,2.4c0.2,0.2,0.1,0.9,0.2,1.2c-0.5,0.2-1,0.4-1.5,0.6
				c-1.9,0.1-3.5,0.9-5.2,1.5c-3.2,1-6.1,2.7-8.5,5.1c-0.7,0.8-1.2,1.7-2.5,1.7c-0.1-0.4-0.2-0.8-0.2-1.1c-0.1,0-0.1,0-0.2,0.1
				c-0.2,0.5,0,0.8,0.4,1c-0.9,4.5-1.9,9.1-4.6,13.1c-1.4,0.4-1.8,1.2-1.3,2.6c0.7,1.9,2.1,0.9,3.2,0.9c3-0.4,5.4-2.5,8.4-2.8
				c-2.3,3.5-6.3,3.1-9.7,4.2c-0.6,0.2-1.9-0.5-1.7,0.8c0.1,1,1.1,1.2,2.1,1c4.6-1.3,9.1-2.9,12.6-6.5c1.3-0.2,1.9-1.4,2.8-2.1
				l0.9-0.9c0.4-0.5,0.9-0.9,0.9-1.6c0.3-1,0.2-1.9,1.5-2.7c1.9-1.1,3.2-3,3.3-5.2C84.3,18.5,86,14.3,84,9.7z M71.5,14.9
				c0-0.1,0-0.1,0.1-0.2C71.6,14.8,71.5,14.9,71.5,14.9c-0.1,0.1-0.1,0.1-0.1,0.2C71.4,15,71.4,15,71.5,14.9z M59,31
				c-0.6,0.4-0.5,1-0.5,1.6c-0.4,0.2-0.5,0.6-0.4,1c0,0.1,0.1,0.1,0.2,0.2l0.3-1.1C59.2,32.3,59,31.6,59,31c0.7-0.3,0.6-0.9,0.7-1.4
				c0.4-0.2,0.5-0.6,0.4-1c0-0.1-0.1-0.1-0.2-0.2l-0.3,1.1C58.9,29.8,59,30.5,59,31z M99.7,63.2c-0.2,0.3-0.3,0.6-0.5,0.9
				c0.6,0.2,0.7-0.2,0.9-0.6c2.4-1.3,4.4-3.1,6.2-5.2c2.2-0.6,2.8-1.7,2.2-3.9c-1,0.5,0.1,2.5-1.7,2.4c0.3-1,0.7-2,0.1-3
				c0.4-0.2,0.6-0.6,0.5-1c0-0.1-0.1-0.1-0.2-0.1c-0.1,0.4-0.2,0.8-0.2,1.1c-2.6-2.1-4.8-4.6-7.8-6.3c-0.6-0.8-1.4-0.5-2.1-0.6
				c0-0.8-0.6-1-1.1-1.2c-6.3-2.4-12.8-2.8-19.2-0.2c-1.9,0.3-3.7,0.9-5.4,1.7C66,49.2,60.6,50.2,55,48.9c-2.7-0.6-4.9-2.7-7.6-3.5
				c-7.1-2.2-14.1-1.7-20.8,2.3c-4.5,2.7-8,6.5-11.5,10.4c-4.8,5.1-8,11.5-9.4,18.4C4.9,81.2,5.5,86,5.3,90.7c0.1,2.4,0.5,4.8,1,7.1
				c1.1,5.1,2.3,10.2,4.8,14.8c-1.1,2.7-0.6,3.9,1.9,4.1c0.1,2.1,1.5,3.7,2.5,5.3c1.9,3.2,3.4,6.8,6.8,8.8c0.2,0.3,0.4,0.7,0.6,0.9
				c0.2,0.3,0,0.9,0.2,1.2c3.3,4,7.1,7.5,12.2,9.1c0.6,0.3,1.2,0.1,1.6-0.4h4.6c2.1,0.4,4.2,0.9,6.3,0.4c3.4-0.9,6.6-2.3,9.9-3.5
				h7.3c2.9,0.9,5.9,1.7,8.9,2.6c3,1.9,9.7,1.7,13.6-0.3c3.3-1.7,6.4-3.9,9-6.5c1.9-1.9,4.1-3.8,4.5-6.7c4-4.5,6-9.9,8-15.4
				c0.9-2.2,0.1-3.4-1.9-4.4c-3.3-1.5-6.2-3.9-8.3-6.8l-4-5.4c-0.1-0.8-0.3-1.5-0.6-2.3c-2.6-7.3-2.2-14.6,0.3-21.8
				c0.2-0.6,0.4-1.4,0.8-1.6c2.4-0.9,2.5-3.1,3-5c0.3-0.9,0.3-1.7,1.2-2.1L99.7,63.2z M91.1,142.6c-5.9,3.5-11.7,2.7-17.7,0.1
				c-3.2-1.5-6.6-2.5-10-2.9c-4.5-0.5-8.8,1.2-13,2.8c-4,1.6-7.9,3-12.4,2.6c-1.6-0.2-2.7-1.5-4.4-1c-3.4-2.7-7-5.1-9.9-8.3
				c2.1,3.9,5.4,7,9.4,8.9c0.9,0.8,2,1.3,3.2,1.5c4.6,1.4,9,0.2,13-1.8c8.3-4.2,16.4-3.6,24.6-0.1c3.5,1.5,7.3,3.1,11.2,1.7
				C87.2,145.4,90.1,145.4,91.1,142.6c3.8-1.4,6.2-4.5,8.3-7.7C96.6,137.5,93.8,140.1,91.1,142.6z M78.6,42.3
				c3.1,0.5,6.2-0.9,9.3-0.3C84.8,41,81.7,41.7,78.6,42.3z M94.9,76.8h-0.3v9.1h0.3V76.8z M56.1,48.2l0.6-0.3
				c-0.1-0.2-0.2-0.5-0.3-0.5c-0.2,0-0.4,0.1-0.6,0.3C55.6,48,55.9,48.1,56.1,48.2z M62.5,22.9c-0.1,0.2-0.2,0.3-0.2,0.4
				c0,0.1,0.3,0.1,0.4,0.2c0.1-0.2,0.2-0.3,0.2-0.4C62.9,23,62.7,23,62.5,22.9z M77.5,11.9c-0.1-0.1-0.3-0.2-0.4-0.3
				c0,0.1-0.1,0.3-0.1,0.4s0.2,0.2,0.2,0.1S77.4,11.9,77.5,11.9z"/>
			<path class="st1" d="M84,9.7c1.9,4.6,0.2,8.8-1.5,13.1c-1.4-0.2-0.9-1-0.8-1.9c0.6-1.8,0.9-3.7,1.5-5.5c0.4-1.3,0.2-2.1-1.3-2
				c-0.1-0.4,0.1-1-0.2-1.2c-2.1-1.5-0.1-1.8,0.7-2.4C82.9,9.7,83.5,9.7,84,9.7z"/>
			<path class="st1" d="M5.3,90.4c0.2-4.7-0.5-9.6,0.5-14.2c1.4-6.9,4.6-13.2,9.4-18.4c3.5-3.9,6.9-7.7,11.5-10.4
				c6.5-4,13.6-4.5,20.8-2.3c2.6,0.8,4.8,2.9,7.6,3.5c5.6,1.2,11.1,0.3,16.3-1.9c1.7-0.8,3.5-1.4,5.4-1.7c-0.9,1.5-1,3.4-0.3,5
				c0.3,1.2,0.4,2.5,0.3,3.8c-7,3.7-14.4,6.7-21,11.3c-7.2,4.9-14.3,9.8-20.2,16.3c-3.1,3-6.5,5.8-8.9,9.5c-2.3,2.1-4.2,4.6-5.8,7.3
				c-0.1,0-0.3,0.1-0.4,0.1c-4.7-1.1-8.4-4.1-12-7.1C7.6,90.3,6.4,90,5.3,90.4z"/>
			<path class="st2" d="M23.1,131.7c-0.2-0.3-0.4-0.7-0.6-0.9c0.1-1,0.9-1,1.7-1.1c1.7-0.1,3.2,0.5,4.9,0.5
				c10.3,0.3,20.5,0,30.3-4.1c14.3-6,25.6-15.3,33.6-28.5c0.5-0.9,0.9-1.8,2-1.8l4,5.4c2.2,2.9,5,5.3,8.3,6.8c2,0.9,2.7,2.2,1.9,4.4
				c-2,5.4-4,10.9-8,15.4c-2.2,1.9-4.3,3.7-6.3,5.6c-4.5,4.1-9.2,7.6-15.8,6.4c-0.8,0-1.6,0-2.4,0c-3.6-1.8-7.7-2.1-11.5-0.9H58
				c-0.6-0.8-1.4-0.4-2.2-0.6c-5.2-0.8-9.4,2.1-14,3.7h-4.6c-2.4-1.2-4.7-2.5-6.8-4.2C27.9,135.4,25.4,133.6,23.1,131.7z"/>
			<path class="st3" d="M95,95.7c-1.2,0-1.5,0.9-2,1.8C85,110.7,73.8,120,59.4,126c-9.9,4.1-20,4.4-30.3,4.1c-1.6,0-3.2-0.6-4.9-0.5
				c-0.9,0.1-1.6,0.1-1.7,1.1c-3.4-2.1-4.9-5.7-6.8-8.8c-0.9-1.6-2.4-3.2-2.5-5.3c0.5-1.5,1.2-2.9,2.1-4.2c0.5,0.1,1,0.3,0.9,0.8
				c-1.5,2.5,0.4,2.9,2.1,3.4c7.6,2.3,15.2,3.6,23.2,2.7c11.4-1.1,22.1-5.8,30.6-13.5c14.9-13.3,21.4-29.9,19-49.9
				c-0.2-1.9-0.9-3.7,0-5.6c2.5-1.4,5.2-1.9,7.9-2.6c0,3,0.3,6,0.9,8.9c0.3,1.5-0.3,3.3,1.1,4.6V62l0,0c-0.2,0.2-0.4,0.4-0.6,0.7
				c-0.1,0.2-0.2,0.3-0.4,0.5c-0.9,0.4-0.9,1.2-1.2,2.1c-0.6,1.9-0.7,4.1-3,5c-0.4,0.2-0.6,1-0.8,1.6c-2.5,7.2-2.8,14.5-0.3,21.8
				C94.7,94.1,94.8,94.9,95,95.7z"/>
			<path class="st4" d="M5.3,90.4c1.1-0.5,2.4-0.2,3.1,0.8c3.6,3,7.3,6,12,7.1l-3.7,5.7c-2.3,2.6-3.6,5.7-5.5,8.4
				c-2.6-4.6-3.7-9.8-4.8-14.8C5.7,95.3,5.3,92.9,5.3,90.4z"/>
			<path class="st5" d="M98.6,47.7c-2.7,0.8-5.4,1.2-7.9,2.6c-1.8,0.6-3.7,0.8-5.2,2.1c-1.9,0.3-3.7,1-5.2,2.1
				c-1.2,0.4-2.7,0.6-3.6,1.6c-1.6,0-2.8,1-4.2,1.6c-1.7,0.9-3.8,1.4-5.2,3c-0.4,0-0.8,0.1-1.2,0.3c-7.2,4.2-14.1,9-20.5,14.4
				c-2.8,2.4-5.1,5.4-8.3,7.3c-0.7-0.2-1.3-0.6-1.7-1.1c5.9-6.5,13-11.4,20.2-16.3c6.6-4.5,14-7.6,21-11.3
				c6.8-2.5,13.5-4.9,20.4-7.3c0.8,0.1,1.5-0.2,2.1,0.6C99,47.3,98.8,47.5,98.6,47.7z"/>
			<path class="st4" d="M75.2,15.4c1.6-0.8,3.4-1.3,5.2-1.5c-0.4,2.5-1.2,4.8-2.2,7.1c-2.5,7-7.7,10.9-14.5,11.1
				c0.1-1.6,0.7-3.2,1.6-4.5c2.3-3.6,5-6.8,8.1-9.7C74.1,17.2,75.2,16.6,75.2,15.4z"/>
			<path class="st4" d="M97.1,46.7c-6.8,2.5-13.5,4.9-20.4,7.3c-0.1-1.2,0.2-2.6-0.3-3.8c-0.8-1.6-0.7-3.5,0.3-5
				c6.4-2.7,12.9-2.2,19.2,0.2C96.6,45.5,97,46,97.1,46.7z"/>
			<path class="st6" d="M63.7,32.1c6.8-0.2,12-4.1,14.5-11.1c0.9-2.4,1.9-4.6,2.2-7.1c0.5-0.2,1-0.4,1.5-0.6c1.5-0.1,1.7,0.7,1.3,2
				c-0.6,1.8-0.9,3.7-1.5,5.5c-0.3,0.9-0.8,1.7,0.8,1.9c-0.1,2.2-1.4,4.2-3.3,5.2c-1.4,0.9-1.2,1.7-1.5,2.7
				c-0.7,0.2-1.1,0.9-0.9,1.6l-0.9,0.9c-0.7,0-1.3,0-2,0.1c-0.4,0-0.9,0-1.3-0.1c-0.7-1.9-1.4,0.1-2.1,0c-0.7-0.1-1.3,0.1-2,0.1
				c-2.3-0.8-4.2,0.7-6.3,1C62,33,63.1,32.8,63.7,32.1z M73.8,32.4c0.5-0.8,1.2-1.1,1.2-2.1C73.9,30.5,73.5,31,73.8,32.4z"/>
			<path class="st7" d="M33.5,144.2c1.6-0.6,2.7,0.9,4.4,1c4.5,0.5,8.3-0.9,12.4-2.6c4.1-1.6,8.5-3.3,13-2.8c3.5,0.5,6.9,1.4,10,2.9
				c6.1,2.7,11.8,3.4,17.7-0.1h-0.1c-0.9,2.8-3.8,2.8-6,3.6c-4,1.3-7.7-0.3-11.2-1.7c-8.3-3.6-16.4-4.1-24.6,0.1
				c-4,2-8.4,3.2-13,1.8c-1.2-0.3-2.3-0.8-3.2-1.5C33.1,144.6,33.3,144.4,33.5,144.2z"/>
			<path class="st2" d="M98.6,47.7l0.6-0.6c2.9,1.7,5.2,4.2,7.8,6.3l0,0c0.6,1,0.1,2.1-0.1,3c-0.2,0.3-0.4,0.5-0.7,0.8v-0.2
				c-0.7-0.1-1.4,0.3-1.6,1c0.1,0.5-0.1,0.6-0.5,0.5c-0.9-0.1-1.4,0.3-1.3,1.2c-0.5,0.5-0.9,0.9-1.5,1.4c-0.2,0-0.4-0.1-0.7-0.1
				c-1.4-1.3-0.9-3-1.1-4.6C98.9,53.6,98.6,50.7,98.6,47.7z"/>
			<path class="st6" d="M76.7,139.4c0.8,0,1.6,0,2.4,0c6.6,1.1,11.3-2.3,15.8-6.4c2.1-1.9,4.3-3.7,6.3-5.6c-0.5,2.9-2.7,4.8-4.5,6.7
				c-2.6,2.7-5.7,4.9-9,6.5c-4,2.1-10.6,2.2-13.6,0.3C74.7,140.1,76.4,140.8,76.7,139.4z"/>
			<path class="st1" d="M63.7,32.1c-0.5,0.7-1.7,0.9-1.5,2.1c0,0.3,0,0.6-0.1,0.9h-2.6c2.7-3.9,3.8-8.4,4.6-13.1l0,0
				c1.2,0,1.8-0.9,2.5-1.7c2.4-2.4,5.3-4.1,8.5-5.1c0,1.2-0.9,1.8-1.7,2.5c-3.1,2.8-5.9,6.1-8.1,9.7C64.5,28.8,63.9,30.4,63.7,32.1z
				"/>
			<path class="st8" d="M11.2,112.4c2-2.7,3.3-5.9,5.5-8.4l2.8,0.6c-0.9,1.6-2.1,3-2.5,4.8v0.2l0.1,0.1c-0.5-0.1-0.6,0.3-0.8,0.6
				c-0.4,0.7-0.9,1.4-1.2,2.1c-1,1.2-1.7,2.7-2.1,4.2C10.7,116.3,10.1,115.1,11.2,112.4z"/>
			<path class="st9" d="M41.8,141.6c4.5-1.5,8.8-4.5,14-3.7c0.8,0.1,1.6-0.2,2.2,0.6c-3.3,1.2-6.5,2.6-9.9,3.5
				C46,142.6,43.8,141.9,41.8,141.6z"/>
			<path class="st9" d="M23.1,131.7c2.5,1.9,4.9,3.8,7.3,5.8c2.1,1.6,4.4,3,6.8,4.2c-0.4,0.5-1.1,0.6-1.6,0.4
				c-5.1-1.6-8.9-5-12.2-9.1C23,132.6,23.1,132,23.1,131.7z"/>
			<path class="st10" d="M73.1,35.2c-3.4,3.6-8,5.2-12.6,6.5c-0.9,0.3-2,0-2.1-1c-0.1-1.2,1.1-0.6,1.7-0.8c3.3-1.1,7.4-0.7,9.7-4.2
				h0.1c0.2-0.3,0.4-0.5,0.6-0.8C71.4,35.1,72.2,35.1,73.1,35.2z"/>
			<path class="st9" d="M76.7,139.4c-0.4,1.4-2,0.7-2.7,1.6c-2.9-0.9-5.9-1.7-8.9-2.6C69,137.3,73.1,137.6,76.7,139.4z"/>
			<path class="st11" d="M69.9,35.8c-3,0.4-5.4,2.5-8.4,2.8c-1.1,0.1-2.6,1-3.2-0.9c1.8-0.7,3.7-1.3,5.6-1.8
				c1.4-0.3,3.1-0.4,4.1-1.9c0.2,0,0.3,0,0.5-0.1h1c0.5,0.1,1,0.1,1.5,0.2c-0.1,0.1-0.2,0.3-0.3,0.4c-0.6,0.1-0.7,0.6-0.7,1
				L69.9,35.8z"/>
			<path class="st8" d="M33.5,144.2c-0.2,0.2-0.3,0.4-0.5,0.6c-4-1.8-7.3-5-9.4-8.9C26.5,139,30,141.5,33.5,144.2z"/>
			<path class="st5" d="M67.9,34.2c-0.9,1.5-2.7,1.6-4.1,1.9c-1.9,0.4-3.8,1-5.6,1.8c-0.4-1.3-0.1-2.2,1.3-2.6h2.6
				C64,34.8,65.9,34.5,67.9,34.2z"/>
			<path class="st8" d="M91,142.6L91,142.6c2.8-2.6,5.6-5,8.4-7.7C97.3,138.2,94.9,141.1,91,142.6z"/>
			<path class="st8" d="M106.3,57.1v0.2c0.1,0.3,0.1,0.6,0.2,0.9c-1.7,2.1-3.8,3.8-6.2,5.2c-0.2-0.1-0.3-0.2-0.5-0.3l0.1-0.2
				c0.1-0.2,0.2-0.3,0.4-0.5c0.2-0.2,0.4-0.4,0.6-0.7l0,0l0.6-0.6c0.5-0.5,0.9-0.9,1.5-1.4c0.7-0.2,1.2-0.5,1.3-1.2
				c0.4,0,0.6-0.1,0.5-0.5C105.8,58.7,106,57.9,106.3,57.1z"/>
			<path class="st2" d="M78.6,42.3c3-0.7,6.2-1.4,9.3-0.3C84.8,41.4,81.7,42.9,78.6,42.3z"/>
			<path class="st4" d="M106.4,58.1c-0.1-0.3-0.1-0.6-0.2-0.9c0.2-0.2,0.4-0.5,0.7-0.8c1.8,0.1,0.7-1.9,1.7-2.4
				C109.2,56.4,108.5,57.6,106.4,58.1z"/>
			<path class="st8" d="M94.9,76.8V86h-0.3v-9.1C94.7,76.8,94.8,76.8,94.9,76.8z"/>
			<path class="st10" d="M73.9,33.2c0.7,0,1.3,0,2-0.1c-0.9,0.7-1.5,1.9-2.8,2.1l0,0C73.3,34.6,73.6,33.9,73.9,33.2z"/>
			<path class="st1" d="M56.1,48.2c-0.4-0.1-0.6-0.3-0.4-0.5c0.1-0.2,0.3-0.3,0.6-0.3c0.1,0,0.2,0.3,0.3,0.5
				C56.5,48,56.3,48.1,56.1,48.2z"/>
			<path class="st1" d="M62.5,22.9c0.2,0.1,0.4,0.1,0.4,0.2c0,0.1-0.1,0.3-0.2,0.4c-0.2-0.1-0.4-0.1-0.4-0.2
				C62.4,23.2,62.5,23,62.5,22.9z"/>
			<path class="st10" d="M76.7,32.3c-0.1-0.7,0.3-1.3,0.9-1.6C77.7,31.4,77.1,31.8,76.7,32.3z"/>
			<path class="st2" d="M59.5,29.4l0.3-1.1c0.1,0.1,0.2,0.1,0.2,0.2C60,28.9,59.9,29.3,59.5,29.4z"/>
			<path class="st1" d="M77.5,11.9l-0.3,0.3L77,12.1c0-0.1,0.1-0.3,0.1-0.4S77.3,11.7,77.5,11.9z"/>
			<path class="st2" d="M58.5,32.6l-0.3,1.1c-0.1-0.1-0.2-0.1-0.2-0.2C57.9,33.2,58.1,32.8,58.5,32.6C58.5,32.6,58.5,32.6,58.5,32.6
				z"/>
			<path class="st4" d="M106.9,53.5c0.1-0.4,0.2-0.8,0.2-1.1c0.1,0,0.1,0,0.2,0.1C107.5,52.8,107.3,53.3,106.9,53.5
				C106.9,53.5,106.9,53.5,106.9,53.5z"/>
			<path class="st2" d="M58.4,32.5c0.1-0.6-0.1-1.2,0.5-1.6L59,31C59,31.6,59.2,32.3,58.4,32.5z"/>
			<path class="st2" d="M59.5,29.5c-0.1,0.6,0.1,1.1-0.6,1.5l-0.1-0.1C59,30.4,58.8,29.8,59.5,29.5z"/>
			<path class="st3" d="M99.7,63.2c0.2,0.1,0.3,0.2,0.5,0.3c-0.2,0.4-0.3,0.8-0.9,0.6C99.4,63.7,99.5,63.4,99.7,63.2z"/>
			<path class="st1" d="M64.2,22.2c-0.4-0.3-0.6-0.6-0.4-1c0-0.1,0.1-0.1,0.2-0.1C64.1,21.4,64.2,21.8,64.2,22.2z"/>
			<path class="st1" d="M71.5,14.9c0-0.1,0-0.1,0.1-0.2C71.6,14.8,71.5,14.9,71.5,14.9z"/>
			<path class="st1" d="M71.5,14.9c0,0.1,0,0.1-0.1,0.2C71.4,15,71.4,15,71.5,14.9z"/>
			<path class="st12" d="M35.5,81.5c0.4,0.7,1.1,0.9,1.7,1.1c-2.7,2.9-5.3,5.9-7.9,8.8l-2.7-0.6C29,87.3,32.4,84.6,35.5,81.5z"/>
			<path class="st11" d="M26.7,91l2.7,0.6c-0.1,0.3-0.2,0.6-0.3,0.9c-1.3,1.3-2.5,2.7-3.4,4.3c-0.7,0.7-1.3,1.4-2,2.1
				c-0.9-0.2-1.9-0.4-2.7-0.6C22.4,95.6,24.4,93.1,26.7,91z"/>
			<path class="st10" d="M20.9,98.2c0.9,0.2,1.9,0.4,2.7,0.6l-1.4,2.6c-0.9,0.7-0.6,1.9-1.2,2.7c-0.5,0.2-0.9,0.4-1.3,0.7l-2.8-0.6
				l3.7-5.7C20.6,98.3,20.7,98.3,20.9,98.2z"/>
			<path class="st9" d="M15.2,112.3c0.4-0.7,0.9-1.4,1.2-2.1c0.3-0.2,0.5-0.4,0.8-0.6l-0.1-0.1v-0.1c0.8,1,1.2,2.4,2.7,2.8
				c7.6,2.4,15.7,3,23.6,1.8c12.7-1.6,23-8.1,31.2-17.8c7.7-9.1,11.4-19.8,11.9-31.6c0.2-4.2-0.7-8.2-1-12.3
				c1.5-1.3,3.4-1.4,5.2-2.1c-0.9,1.9-0.2,3.7,0,5.6c2.5,20-4.1,36.7-19,49.9c-8.5,7.6-19.2,12.4-30.6,13.5
				c-8.1,0.9-15.6-0.5-23.2-2.7c-1.6-0.5-3.5-0.9-2.1-3.4C16.3,112.6,15.7,112.4,15.2,112.3z"/>
			<path class="st4" d="M100.8,61.8c-0.2,0.2-0.4,0.4-0.6,0.7C100.4,62.2,100.6,62,100.8,61.8z"/>
			<path class="st4" d="M101.3,61.3l-0.6,0.6v-0.7C100.9,61.2,101.1,61.3,101.3,61.3z"/>
			<path class="st13" d="M85.6,52.3c0.5,4.1,1.2,8.1,1,12.3c-0.6,11.8-4.3,22.6-11.9,31.6c-8.2,9.8-18.6,16.1-31.2,17.8
				c-7.9,1.2-16,0.6-23.6-1.8c-1.5-0.5-2-1.8-2.7-2.8c0.4-1.9,1.6-3.2,2.5-4.8c0.5-0.2,0.9-0.4,1.3-0.7c-0.3,2,0.8,3,2.7,3.4
				c8.6,1.8,17.3,2.2,25.9-0.5c8.4-2.7,15.8-7.9,21.2-14.8c6.7-8.2,9.9-17.6,10.3-28.1c0.1-3.2-0.8-6.3-0.6-9.6
				C82,53.4,83.8,52.7,85.6,52.3z"/>
			<path class="st4" d="M29,92.4c0.1-0.3,0.2-0.6,0.3-0.9c2.7-2.9,5.3-5.9,7.9-8.8c3.2-1.9,5.4-4.9,8.3-7.3C51.9,70,58.8,65.2,66,61
				c0.4-0.1,0.8-0.2,1.2-0.3c-0.3,1.3-0.4,2.7-0.5,4.1c0,8.5-3.7,15.5-9.3,21.6c-5.2,5.7-12.1,8.1-19.6,8.7
				C34.8,95.3,31.1,96.3,29,92.4z"/>
			<path class="st14" d="M29,92.4c2.1,3.9,5.8,2.8,8.9,2.7c7.5-0.6,14.4-3,19.6-8.7c5.5-6.1,9.3-13.1,9.3-21.6
				c0.1-1.4,0.2-2.7,0.5-4.1c1.4-1.5,3.5-2,5.2-3c-0.2,4.3,0.3,8.4-0.5,12.7c-3.3,18.8-20.4,32-39.4,30.5c-5.2-0.4-6.3-1.1-7-4.2
				C26.6,95.2,27.7,93.7,29,92.4z"/>
			<path class="st15" d="M25.6,96.7c0.8,3.1,1.8,3.8,7,4.2c19,1.5,36.1-11.7,39.4-30.5c0.8-4.3,0.3-8.4,0.5-12.7
				c1.3-0.7,2.6-1.6,4.2-1.6c0,4.6,0.6,9.5-0.2,14C74,84.6,66.1,95.3,52.7,101.6c-8.9,4.3-18.4,4.4-27.9,2.3
				c-1.1-0.1-1.9-1.1-1.8-2.2c0-0.1,0-0.2,0-0.2c0-0.1,0-0.1,0.1-0.2c0,0.1,0,0.1-0.1,0.2c-0.3,0-0.6-0.1-0.9-0.1l1.4-2.6
				C24.3,98.1,25,97.5,25.6,96.7z"/>
			<path class="st6" d="M23.1,101.4c-0.2,1.1,0.5,2.2,1.7,2.4c0,0,0.1,0,0.1,0c9.5,2.1,19,2,27.9-2.3C66.1,95.3,74,84.6,76.5,70.1
				c0.8-4.5,0.2-9.4,0.2-14c1-1,2.4-1.1,3.6-1.6c-0.2,3.2,0.7,6.3,0.6,9.6C80.7,74.3,77,84.2,70.5,92.1c-5.5,6.9-12.9,12-21.2,14.8
				c-8.5,2.7-17.2,2.4-25.9,0.5c-1.9-0.4-2.9-1.4-2.7-3.4c0.7-0.8,0.3-2,1.2-2.7C22.5,101.3,22.8,101.4,23.1,101.4L23.1,101.4z"/>
			<path class="st9" d="M67.9,34.2c-1.9,0.4-3.9,0.7-5.8,1c0-0.3,0-0.6,0.1-0.9c2.1-0.4,4-1.8,6.3-1v0.9H67.9z"/>
			<path class="st0" d="M73.9,33.2c-0.3,0.7-0.5,1.4-0.8,2.1L70.5,35c0.1-0.1,0.1-0.1,0.1-0.2s0.2-0.3,0.3-0.4c0.9,0,1-0.9,1.6-1.2
				C73,33.1,73.4,33.1,73.9,33.2z"/>
			<path class="st12" d="M72.5,33.1c-0.6,0.4-0.8,1.2-1.6,1.2c-0.5-0.1-1-0.1-1.5-0.2l1-1C71.1,33.2,71.9,31.2,72.5,33.1z"/>
			<path class="st9" d="M73.8,32.4c-0.3-1.3,0.1-1.8,1.2-2.1C75,31.2,74.2,31.6,73.8,32.4z"/>
			<path class="st5" d="M70.4,33l-1,1h-1v-0.9C69.1,33.1,69.8,33.1,70.4,33z"/>
			<path class="st4" d="M104.2,58.7c-0.1,0.8-0.7,1-1.3,1.2C102.8,59,103.2,58.6,104.2,58.7z"/>
			<path class="st0" d="M106.3,57.1c-0.3,0.8-0.5,1.6-1.6,1C104.8,57.4,105.5,56.9,106.3,57.1z"/>
			<path class="st13" d="M17.2,109.7c-0.3,0.2-0.5,0.4-0.8,0.6C16.6,109.9,16.7,109.5,17.2,109.7z"/>
			<path class="st12" d="M70.6,34.7c0,0.1,0,0.2-0.1,0.2c-0.2,0.3-0.4,0.5-0.6,0.8C70,35.3,70.1,34.8,70.6,34.7z"/>
			<path class="st6" d="M23.1,101.4c0-0.1,0-0.1,0.1-0.2C23.1,101.2,23.1,101.3,23.1,101.4z"/>
		</g>
	</g>
</g>
</svg>
